<svg id="Group_8266" data-name="Group 8266" xmlns="http://www.w3.org/2000/svg" xmlns:xlink="http://www.w3.org/1999/xlink" width="61.949" height="45.516" viewBox="0 0 61.949 45.516">
  <defs>
    <clipPath id="clip-path">
      <rect id="Rectangle_1212" data-name="Rectangle 1212" width="61.949" height="45.516" fill="#fff"/>
    </clipPath>
  </defs>
  <g id="Group_8265" data-name="Group 8265" clip-path="url(#clip-path)">
    <path id="Path_1840" data-name="Path 1840" d="M0,37.283c.65-2.335,2.509-2.983,4.5-4.032a8.712,8.712,0,0,1-2.674-1.814c-1.044-1.111-.738-1.545-.4-2.884.583-2.338.282-4.8.664-7.166a7.794,7.794,0,0,1,7.327-6.761,7.834,7.834,0,0,1,7.748,6.639c.42,2.387.094,4.9.668,7.255.274,1.126.585,1.774-.262,2.756A8.243,8.243,0,0,1,14.8,33.229c1.04.939,3.544-.7,4.657-1.108a10.658,10.658,0,0,0,2.356-.862,12.835,12.835,0,0,0,1.675-1.866,3.585,3.585,0,0,0,.706-3.191c-.246-1.366-1.669-2.3-2.368-3.5a10.9,10.9,0,0,1-1.416-4.509c-.2-2.222-.638-4.315-.96-6.517-.522-3.568.3-7.432,3.223-9.792C25.64-.519,29.929.061,33.493.06c2.214,0,4.428.024,6.643.032.637,0,1.711-.221,2.182.375.516.653.171,2.469.171,3.209,0,2.031-.007,4.063-.032,6.094a16.372,16.372,0,0,1-.146,2.835c-.184.974-.617,1.859-.731,2.853-.211,1.831.022,3.612-.6,5.4a9.725,9.725,0,0,1-1.368,2.489c-.552.761-1.632,1.62-1.931,2.519-.9,2.711,1.552,5.1,3.766,5.913,1.667.613,3.1,1.368,4.87.815,1.428-.445,1.42-1.37.484-2.441a7.767,7.767,0,0,1-2.165-4.038c-.134-.859,0-1.736-.208-2.584a24.412,24.412,0,0,1-.8-2.5A5.673,5.673,0,0,1,48.2,14.758a41.965,41.965,0,0,1,6.366-.142,15.592,15.592,0,0,1,3.3,0c1.185.3,1.048.89,1.047,2.093,0,1.791.245,3.924-.419,5.616s-.322,3.459-.933,5.171a6.452,6.452,0,0,1-1.156,2c-.487.575-1.286.942-1.386,1.728C54.8,32.941,57.88,33.009,59,33.411c3.8,1.367,2.846,5.8,2.839,9.043,0,.744.381,2.555-.543,2.954-1.053.456-1.238-.733-1.27-1.421-.106-2.261.316-4.676-.019-6.915-.3-2.041-2.4-2.2-4.091-2.674-1.031-.287-1.369-.4-2.2.267a4.172,4.172,0,0,0-1.529,1.849,10.225,10.225,0,0,0-.024,2.99c.008,1.312.018,2.628,0,3.94-.01.717.161,2.083-.964,2.022-.877-.048-.818-.905-.848-1.559-.1-2.28.425-4.859.008-7.095-.26-1.4-1.909-3.088-3.342-2.5,1.71,2.43,1.312,5.2,1.292,8.048-.005.735.349,2.857-.8,3.062-1.214.218-1.01-1.8-1.015-2.405-.012-1.479.005-2.959,0-4.438a4.279,4.279,0,0,0-.639-2.808,6.04,6.04,0,0,0-2.847-1.507q-2.17-.794-4.341-1.585c-.834,1.244-1.854,3.68-3.26,4.327-1.5.691-2.614-.924-3.524-1.855-.07,1.449.75,10.281-.922,10.326-1.729.047-.927-8.9-.927-10.338-.918.914-2.085,2.545-3.566,1.884-1.4-.625-2.451-3.119-3.266-4.34-1.6.581-3.218,1.141-4.814,1.744a6.249,6.249,0,0,0-2.163,1.1c-1.459,1.4-.86,4.471-.861,6.234,0,.882.478,3.2-.553,3.647-1.395.605-1.257-1.523-1.258-2.223,0-2.665-.423-5.558.671-8.051-1.079-.841-1.248-.095-2.225.614a3.971,3.971,0,0,1-2.72.871c-1.227-.113-1.749-.84-2.693-1.45-.991-.639-1.471-.17-2.5.349-.839.421-1.791.773-2.139,1.724a10.3,10.3,0,0,0-.125,3.385c0,1.392.689,6.179-1.815,4.263V37.283M40.639,1.964a.514.514,0,0,0-.136-.051c-3.338,0-6.676-.067-10.014-.024-2.515.032-5.15-.116-7.108,1.736A8.549,8.549,0,0,0,21.1,10.107a20.2,20.2,0,0,0,.786,4.159,22.971,22.971,0,0,1,.327,3.54,8.981,8.981,0,0,0,8.43,8.435,8.7,8.7,0,0,0,8.847-7.156c.232-1.442.073-2.919.336-4.356a27.678,27.678,0,0,0,.792-3.715c.141-3.008.023-6.04.023-9.051M57.132,16.5a1.108,1.108,0,0,0-.238-.074c-2.323,0-4.648-.058-6.971,0a4.354,4.354,0,0,0-3.975,1.9c-.838,1.38-.536,2.606,0,3.994.611,1.591.246,3.391.943,4.952a4.879,4.879,0,0,0,8.216.96c1.292-1.681.617-3.651,1.23-5.51a10.263,10.263,0,0,0,.792-3.072c.038-1.051-.069-2.1,0-3.152M3.7,24.275c.8.071,1.049.579,1.048,1.288,0,3.294,3.882,5.34,6.718,4.164a4.678,4.678,0,0,0,2.893-3.3c.16-1.6-1.806-2.865-3.076-3.422-1.669-.732-2.824-.968-4.17.239-.5.448-1.189,1.066-1.763.308-.517-.682.226-1.332.666-1.8a3.015,3.015,0,0,1,2.032-1.286,8.206,8.206,0,0,1,2.932.461,14.565,14.565,0,0,1,4.579,2.979c.021-3.8-2.056-7.679-6.34-7.416-4.09.25-5.6,4.233-5.521,7.785m22.321,2.551a8.434,8.434,0,0,0,.015,1.233c.157.985,1.978,1.816,2.721,2.321.916.623,1.673,1.523,2.741,1.08a19.19,19.19,0,0,0,3.483-2.372c.946-.7.865-1.062.865-2.222a10.728,10.728,0,0,1-9.825-.04m8.665,8.543,2.223-3.323c.533-.8.589-1.292-.342-1.843l-4.184,2.86,2.3,2.306m-10.35-4.245,2.778,4.155,2.309-2.256-4.176-2.85-.91.951M7.661,31.8c-.174,1.024-.361,2.116.955,2.753a2.322,2.322,0,0,0,2.275-.168c1.217-.711.7-1.742.675-2.585Zm43.628,2.813c.543-.569,1.022-1.138,1.573-1.626a1.078,1.078,0,0,0,.362-1.2H49.238c.113,1.283,1.157,1.934,2.052,2.823M3.448,27.859c-.168.672-.325,1.23-.437,1.8C2.8,30.726,5.158,31.57,5.9,31.809c-.353-1.611-1.718-2.44-2.448-3.95m12.4.251a29.854,29.854,0,0,1-2.012,2.276c-.466.438-.46.837-.3,1.554.683-.455,2.046-1.006,2.511-1.685.442-.645,0-1.423-.194-2.145" transform="translate(0 0.001)" fill="#fff"/>
    <path id="Path_1841" data-name="Path 1841" d="M372.455,254.317c0,.846.494,4.025-1.085,3.692-1.243-.263-.729-3.176-.729-4.088,0-.861-.479-3.43.891-3.475,1.431-.047.922,3.014.923,3.871" transform="translate(-314.489 -212.563)" fill="#fff"/>
    <path id="Path_1842" data-name="Path 1842" d="M26.978,261.585c0,.818.447,3.155-.877,3.2-1.379.045-.939-2.407-.939-3.211s-.446-3.252.952-3.184c1.316.064.863,2.363.863,3.2" transform="translate(-21.298 -219.303)" fill="#fff"/>
    <path id="Path_1843" data-name="Path 1843" d="M268.628,266.026c0-.783-.384-2.724.863-2.782,1.335-.062.953,2.086.953,2.838s.347,2.909-.978,2.814c-1.253-.089-.836-2.078-.838-2.87" transform="translate(-227.94 -223.424)" fill="#fff"/>
    <path id="Path_1844" data-name="Path 1844" d="M129.5,266.1c0,.784.391,2.8-.889,2.817-1.311.014-.915-2.089-.914-2.842s-.363-2.864.94-2.81c1.268.052.86,2.036.86,2.836h0" transform="translate(-108.33 -223.442)" fill="#fff"/>
    <path id="Path_1845" data-name="Path 1845" d="M155.177,56.715c0,.795.424,3-.894,3.012-1.227.015-.957-1.872-.908-2.643.2-3.176,4.9-2.628,7.245-2.52a16.808,16.808,0,0,1,4.975.9c.874.321,3.363,1.343,3.117,2.59-.349,1.768-2.591-.383-3.291-.7a12.5,12.5,0,0,0-4.183-.914,26.366,26.366,0,0,0-6.061.28" transform="translate(-130.125 -46.223)" fill="#fff"/>
    <path id="Path_1846" data-name="Path 1846" d="M315.693,128.746a12.155,12.155,0,0,1,4.829.873c1.324.713.838,2.02-.619,1.682-1.63-.378-3.178-.546-4.831-.779-.563-.079-1.124-.086-1.256-.747s.421-1.063,1.036-1.068c.28,0,.561.025.842.039" transform="translate(-266.331 -109.239)" fill="#fff"/>
  </g>
</svg>
