<svg id="Group_8274" data-name="Group 8274" xmlns="http://www.w3.org/2000/svg" xmlns:xlink="http://www.w3.org/1999/xlink" width="48.652" height="48.642" viewBox="0 0 48.652 48.642">
  <defs>
    <clipPath id="clip-path">
      <rect id="Rectangle_1215" data-name="Rectangle 1215" width="48.652" height="48.642" fill="#fff"/>
    </clipPath>
  </defs>
  <g id="Group_8273" data-name="Group 8273" clip-path="url(#clip-path)">
    <path id="Path_1864" data-name="Path 1864" d="M34.069,27.549a10.012,10.012,0,0,1,.569,1.268,5.9,5.9,0,0,1,.216,1.375c.035.679.014,1.361,0,2.041,0,.162.047.2.2.2.459-.007.919-.016,1.377.006a.808.808,0,0,1,.835.824c.007.086.006.174.006.261q0,2.826,0,5.651,0,4.417-.006,8.833c0,.2,0,.406,0,.615H35.729c-.007-.093-.019-.177-.019-.261q0-5.9,0-11.8c0-.775-.019-1.551-.024-2.327,0-.144-.025-.207-.2-.205q-1.152.011-2.3-.014c-.178,0-.232.058-.249.222-.126,1.251-.254,2.5-.392,3.751-.149,1.351-.309,2.7-.464,4.052-.109.95-.224,1.9-.323,2.851a.581.581,0,0,0,.1.351,3.965,3.965,0,0,1,.568,2.523.865.865,0,0,1-.984.865c-1.077.008-2.153,0-3.23,0-.42,0-.839,0-1.259,0a.876.876,0,0,1-.986-.91,3.805,3.805,0,0,1,.577-2.539.467.467,0,0,0,.059-.29c-.13-1.259-.268-2.516-.4-3.774-.1-.92-.2-1.84-.3-2.759q-.236-2.086-.484-4.17a.235.235,0,0,0-.169-.15c-.593-.017-1.187-.011-1.781-.027-.175,0-.226.046-.242.221q-.177,2.021-.375,4.039c-.158,1.613-.326,3.225-.491,4.838-.065.637-.143,1.273-.2,1.911a.641.641,0,0,0,.08.358,4.108,4.108,0,0,1,.458,2.411.845.845,0,0,1-.916.836q-2.328.021-4.655,0a.817.817,0,0,1-.9-.885A4.165,4.165,0,0,1,16.7,45.36a.724.724,0,0,0,.058-.409q-.175-1.878-.368-3.754-.242-2.4-.49-4.79c-.075-.731-.15-1.463-.217-2.2-.012-.128-.045-.177-.183-.177-.768,0-1.536,0-2.3-.021-.186,0-.246.05-.246.239q.008,2.814,0,5.627,0,4.06-.005,8.121c0,.2,0,.407,0,.623H11.408c-.007-.107-.02-.214-.02-.321q-.005-5.331-.008-10.661,0-2.066,0-4.131c0-.786.289-1.077,1.072-1.083.434,0,.867,0,1.317,0,.007-.073.018-.133.018-.194.014-.815.014-1.63.042-2.444a3.832,3.832,0,0,1,.671-2c.034-.052.065-.108.095-.163.006-.011,0-.03,0-.063-.082,0-.166-.013-.25-.013q-3.408,0-6.817,0c-.157,0-.241.013-.241.212q.016,7.717.02,15.434,0,2.1,0,4.2c0,.968-.274,1.239-1.246,1.239-.823,0-1.647,0-2.47,0a2.615,2.615,0,0,1-.448-.043.756.756,0,0,1-.663-.7c-.03-.306-.028-.616-.028-.924q0-9.427,0-18.853v-.544c-.1-.006-.185-.016-.269-.016-.388,0-.776,0-1.164,0-.636,0-.98-.291-1-.921-.026-1-.013-1.994,0-2.992a.882.882,0,0,1,.116-.454.571.571,0,0,0,.031-.572,2.159,2.159,0,0,1,.39-2.181.218.218,0,0,0,0-.324,2.313,2.313,0,0,1,.935-3.649.232.232,0,0,0,.153-.254q0-1.009,0-2.018a3.97,3.97,0,0,1,.03-.473.769.769,0,0,1,.67-.7,2.6,2.6,0,0,1,.425-.037q3.86,0,7.719,0a2.444,2.444,0,0,1,2.413,1.931,2.4,2.4,0,0,1-1.366,2.7.272.272,0,0,0-.177.291q0,2.3-.007,4.607c0,.111,0,.206.153.206.624,0,1.248,0,1.905,0l-.26-.66c-.263-.669-.507-1.346-.794-2a2.521,2.521,0,0,1,0-1.58,11.088,11.088,0,0,1,1.5-3.816A10.3,10.3,0,0,1,18.68,10.6c.5-.212.5-.215.213-.668A6.417,6.417,0,0,1,22.366.34a6.177,6.177,0,0,1,6.4,1.463,6.155,6.155,0,0,1,2.021,4.844,6.337,6.337,0,0,1-1.151,3.486c-.156.228-.154.229.109.34a11.04,11.04,0,0,1,3.921,2.688,10.351,10.351,0,0,1,2.488,4.679c.095.4.161.806.256,1.205a1.558,1.558,0,0,1-.09.973c-.354.877-.7,1.758-1.057,2.668.1.008.195.021.285.021.776,0,1.552-.009,2.328,0,.188,0,.242-.047.241-.238,0-1.638,0-3.277.005-4.915a5.068,5.068,0,0,1,.033-.616.777.777,0,0,1,.652-.691,2.144,2.144,0,0,1,.4-.041c1.449,0,2.9-.007,4.347,0a1.579,1.579,0,0,1,.618.126.816.816,0,0,1,.43.812c.006.22,0,.44,0,.684.438,0,.855,0,1.272,0a3.377,3.377,0,0,1,.4.022.738.738,0,0,1,.712.7c.037.488.031.98.033,1.47a11.434,11.434,0,0,1-.029,1.16.706.706,0,0,1-.689.664c-.5.036-1,.037-1.494.037-.171,0-.234.054-.206.219a.4.4,0,0,1,0,.071c0,.531-.005.531.541.53.823,0,1.647-.006,2.47-.006a.907.907,0,0,1,1.035,1.034q0,1.389,0,2.778c0,.718-.327,1.035-1.051,1.035H46.193V27.8q0,9.652,0,19.3c0,.2.008.4,0,.594a.846.846,0,0,1-.907.933q-1.5.028-2.992,0a.842.842,0,0,1-.925-.918c-.025-.434-.025-.87-.025-1.3q0-9.19,0-18.379c0-.474,0-.474-.471-.474H34.069ZM29.192,6.49a4.872,4.872,0,0,0-9.742-.173,4.918,4.918,0,0,0,4.708,5.038A4.859,4.859,0,0,0,29.192,6.49m-4.894,8.1v0H30c.237,0,.476-.011.712.006a.849.849,0,0,1,.9.9c.009.118.016.237.016.356q-.005,3.324-.015,6.648c0,.146.027.213.2.209.514-.013,1.029,0,1.543-.018a.3.3,0,0,0,.22-.15c.4-.969.8-1.94,1.187-2.918a1.007,1.007,0,0,0,.052-.528,11.9,11.9,0,0,0-.349-1.475,8.785,8.785,0,0,0-5.664-5.8,1.1,1.1,0,0,0-1.065.108,6.132,6.132,0,0,1-6.769.02,1.157,1.157,0,0,0-1.105-.128,8.914,8.914,0,0,0-4.709,3.721,9.829,9.829,0,0,0-1.275,3.4,1.313,1.313,0,0,0,.064.806c.39.933.759,1.874,1.146,2.807a.3.3,0,0,0,.222.146c.483.012.966-.009,1.448.007.222.007.278-.059.277-.278q-.013-3.264,0-6.529a4.711,4.711,0,0,1,.032-.568.769.769,0,0,1,.642-.7,2.243,2.243,0,0,1,.448-.039q3.076,0,6.151,0M47.045,24.32H1.927a1.184,1.184,0,0,1-.142,0c-.139-.016-.179.051-.177.179.006.427.008.855,0,1.282,0,.121.035.17.163.166.293-.008.586,0,.879,0H46.28c.206,0,.412.011.617,0,.052,0,.141-.08.142-.125.01-.489.006-.977.006-1.5M30.008,22.687c0-.17,0-.318,0-.467q0-2.837-.007-5.674c0-.335,0-.336-.329-.336q-5.415,0-10.83,0c-.161,0-.2.047-.195.2.006.878,0,1.757,0,2.635,0,1.21,0,2.419,0,3.643ZM15.521,32.521l.091-.01c.039-.116.087-.23.116-.348a3.839,3.839,0,0,1,7.483.054c.042.185.129.22.293.218.538-.007,1.077-.012,1.615,0,.21.006.294-.049.346-.266a3.828,3.828,0,0,1,6.36-1.908,4.066,4.066,0,0,1,1.147,2.01c.02.075.107.133.163.2.041-.076.117-.153.116-.229,0-.847.017-1.695-.034-2.539a2.176,2.176,0,0,0-1.308-1.87,3.28,3.28,0,0,0-1.524-.286q-6.116,0-12.232,0c-.119,0-.237,0-.356.008a2.358,2.358,0,0,0-2.369,2.184c-.058.835-.026,1.677-.023,2.515,0,.088.075.176.115.264m5.1,11.5a.6.6,0,0,0,.044-.115c.264-2.7.519-5.4.795-8.1.112-1.091.556-2.58.1-3.626a2.34,2.34,0,0,0-2.2-1.35A2.2,2.2,0,0,0,17.3,32.386a9.658,9.658,0,0,0,.173,3.44q.406,4.1.8,8.194a3.288,3.288,0,0,1,2.346,0m9.627-.028c.017-.076.032-.12.037-.166.266-2.509.531-5.017.816-7.524.18-1.583.951-3.82-.524-5a2.31,2.31,0,0,0-3.453.831,4.86,4.86,0,0,0-.018,2.6c.125,1.024.236,2.05.349,3.075.226,2.063.457,4.124.679,6.188a2.965,2.965,0,0,1,2.114,0M42.965,27.55V47.017c.474,0,.939-.009,1.4,0,.194.006.235-.059.235-.245q-.009-5.032,0-10.064,0-4.474,0-8.949c0-.123,0-.218-.168-.217-.482,0-.964,0-1.471,0M5.687,47.024c0-1.658,0-3.255,0-4.853q0-7.228,0-14.456c0-.054-.074-.154-.114-.155-.5-.011-1.008-.007-1.535-.007,0,.1,0,.178,0,.255q.008,9.164.015,18.327c0,.237-.014.475-.006.712,0,.06.065.168.1.169.5.011,1.008.008,1.535.008M42.941,17.862h-3.2V22.7h3.2ZM3.261,14.581a.658.658,0,0,0-.022.091c0,.385-.043.8-.014,1.18s.1.347.455.366c.819.044,1.657-.008,2.477-.008l2.711,0c.6,0,1.642.209,2.154-.167a.808.808,0,0,0-.127-1.371,6.3,6.3,0,0,0-2.36-.089l-5.273,0M9.741,21.1c-.1,0-.152-.01-.207-.01H4.35a5.488,5.488,0,0,0-2.286.1A.8.8,0,0,0,1.92,22.5c.513.4,1.546.207,2.151.208H6.522c.86,0,1.72.006,2.58,0,.436,0,.591.076.636-.366a12.365,12.365,0,0,0,0-1.241m0-3.239c-.118-.008-.211-.021-.3-.021H4.287a5.145,5.145,0,0,0-2.25.126.8.8,0,0,0-.09,1.318c.519.366,1.519.173,2.117.173H9.177c.427,0,.541.042.563-.394.021-.4,0-.8,0-1.2M21.077,47.024a.452.452,0,0,0,.023-.081,1.645,1.645,0,0,0-2.77-1.091,1.48,1.48,0,0,0-.468.807c-.056.4.077.365.439.369.925.01,1.851,0,2.776,0m9.764-.016a1.7,1.7,0,0,0-.8-1.386,1.66,1.66,0,0,0-2.484,1.386ZM45.4,20.28v-.819c-.423,0-.8-.131-.813.386-.015.55.381.433.813.433" transform="translate(0 0)" fill="#fff"/>
    <path id="Path_1865" data-name="Path 1865" d="M204.066,56.918a5.092,5.092,0,0,1,0-1.4c.113-.327.364-.219.7-.217.373,0,.759-.134.921.206a4.73,4.73,0,0,1,0,1.4,4.932,4.932,0,0,1,.008,1.4c-.128.334-.482.214-.823.215s-.682.126-.8-.2a5.223,5.223,0,0,1,0-1.4h0" transform="translate(-165.147 -44.748)" fill="#fff"/>
    <path id="Path_1866" data-name="Path 1866" d="M217.057,63.89h1.613q0,.614,0,1.229c0,.229.122.861,0,1.065s-1.6.211-1.6-.021c-.012-.75-.008-1.5-.008-2.273" transform="translate(-175.71 -51.72)" fill="#fff"/>
    <path id="Path_1867" data-name="Path 1867" d="M117.3,97.77c.606,0,1.212,0,1.818,0,.659,0,.607.066.6.711,0,.538.183.914-.457.932-.611.017-1.225,0-1.836,0l-1.835,0c-.745,0-.726,0-.724-.711,0-.551-.187-.915.43-.931.666-.018,1.336,0,2,0h0" transform="translate(-92.967 -79.138)" fill="#fff"/>
  </g>
</svg>
