<svg id="Group_8272" data-name="Group 8272" xmlns="http://www.w3.org/2000/svg" xmlns:xlink="http://www.w3.org/1999/xlink" width="51.565" height="51.614" viewBox="0 0 51.565 51.614">
  <defs>
    <clipPath id="clip-path">
      <rect id="Rectangle_1214" data-name="Rectangle 1214" width="51.565" height="51.614" fill="#fff"/>
    </clipPath>
  </defs>
  <g id="Group_8271" data-name="Group 8271" clip-path="url(#clip-path)">
    <path id="Path_1859" data-name="Path 1859" d="M43.249,28.3h7.182c.807,0,1.135.328,1.135,1.136q0,7.205,0,14.411c0,.77-.336,1.1-1.114,1.1h-7.2c0,.108,0,.2,0,.292-.014.866.011,1.736-.052,2.6a3.891,3.891,0,0,1-2.474,3.407,4.316,4.316,0,0,1-1.821.359q-17.308.007-34.616,0A4.072,4.072,0,0,1,.142,48.4a5.177,5.177,0,0,1-.136-1.158Q-.005,34.98,0,22.715a.94.94,0,0,1,1.071-1.07q2.638,0,5.276,0h.307v-.353q0-10.067,0-20.133A2.462,2.462,0,0,1,6.694.72.79.79,0,0,1,7.382.04,2.614,2.614,0,0,1,7.846,0Q24.972,0,42.1,0c.078,0,.156,0,.234,0a.908.908,0,0,1,.915.936c0,.087,0,.173,0,.26q0,13.37,0,26.74V28.3M41.572,1.685H8.318v.38q0,22.552,0,45.1a4.115,4.115,0,0,1-.626,2.4c-.076.112-.149.225-.241.365.1.006.167.014.233.014q15.709,0,31.418,0a2.515,2.515,0,0,0,2.48-2.483c0-.83,0-1.659,0-2.512-.242,0-.456,0-.671,0a.926.926,0,0,1-.992-1.017c0-.212,0-.425,0-.646-.655,0-1.27.015-1.884-.006a1.849,1.849,0,0,0-.938.24c-.838.431-1.678.86-2.53,1.264a1.756,1.756,0,0,1-.725.16q-4.769.015-9.537,0a3.657,3.657,0,0,1-.8-.083,2.487,2.487,0,0,1-1.884-2.515q-.007-4.955,0-9.91a2.4,2.4,0,0,1,1.057-2.013,2.805,2.805,0,0,1,1.726-.458c1.75-.006,3.5,0,5.249,0h.281c0-1.7-.019-3.353.006-5.009a3.232,3.232,0,0,1,1.923-3,4.276,4.276,0,0,1,1.982-.314.946.946,0,0,1,1.08,1.086c0,1.387-.005,2.775.008,4.162a.724.724,0,0,0,.177.457c.815.839,1.645,1.663,2.474,2.489a.372.372,0,0,0,.216.123c.7.009,1.4.006,2.1.006.056-.489-.1-1,.279-1.386s.91-.232,1.387-.291ZM39.9,41.623V31.635c-.845,0-2.246.278-2.98-.226a18.8,18.8,0,0,1-2.286-2.274A9.818,9.818,0,0,1,33.514,28a2.166,2.166,0,0,1-.247-1.358c0-1.1,0-2.209,0-3.313-1.852-.293-1.663,2.192-1.663,3.285q0,1.353,0,2.706c0,.583.2,1.584-.262,2.047s-1.5.27-2.1.27H26.56a13.986,13.986,0,0,0-2.584.013c-.844.169-.665.984-.665,1.662h6.612v1.669H23.3v1.659h6.625V38.3H23.307v1.668h6.618v1.668H23.29c0,.567-.139,1.363.526,1.609a7.891,7.891,0,0,0,2.381.047q2.5,0,5,0a21.523,21.523,0,0,0,2.515-.006,6.581,6.581,0,0,0,2.008-.9,5.521,5.521,0,0,1,2-.767c.709-.062,1.465,0,2.179,0M1.665,23.322v.238q0,11.99,0,23.98a1.755,1.755,0,0,0,.014.285A2.571,2.571,0,0,0,4.425,49.95a2.551,2.551,0,0,0,2.228-2.5q0-11.925,0-23.85v-.277Zm48.218,6.668H41.6V43.276h8.284Z" transform="translate(0 0)" fill="#fff"/>
    <path id="Path_1860" data-name="Path 1860" d="M89.4,20.641A18.94,18.94,0,0,1,82.251,34.8q-1.493,1.233-2.976,2.479a.879.879,0,0,1-1.374,0c-1.32-1.109-2.672-2.183-3.953-3.335a18.45,18.45,0,0,1-5.495-8.924,17.925,17.925,0,0,1-.681-4.665.933.933,0,0,1,1.067-1.069,14.719,14.719,0,0,0,4.433-.6,15.181,15.181,0,0,0,4.605-2.4c.59-.448.795-.45,1.4.018a15.413,15.413,0,0,0,3.757,2.082,14,14,0,0,0,4.953.9c.1,0,.208,0,.312,0,.757,0,1.1.34,1.1,1.094v.26m-1.619.391c-.975-.139-1.87-.228-2.75-.4a15.093,15.093,0,0,1-6.216-2.669.3.3,0,0,0-.439-.011,15.7,15.7,0,0,1-7.541,2.9c-.459.059-.923.086-1.4.129.036.332.076.649.1.968a15.187,15.187,0,0,0,.9,3.989,16.386,16.386,0,0,0,3.6,5.8c1.367,1.4,2.937,2.559,4.409,3.835.116.1.2.064.29-.016,1.29-1.09,2.634-2.121,3.861-3.279A15.943,15.943,0,0,0,87.266,24.1c.233-1.016.347-2.06.511-3.066" transform="translate(-53.633 -12.627)" fill="#fff"/>
    <path id="Path_1861" data-name="Path 1861" d="M57.268,113.183l1.074,1.113c-.323.329-.643.656-.965.981-.372.376-.752.743-1.115,1.128a.506.506,0,0,0-.1.322c-.006,1.673,0,3.347,0,5.02,0,.791-.33,1.122-1.121,1.122H48.978c-.822,0-1.142-.325-1.142-1.155q0-3.03,0-6.061c0-.773.334-1.108,1.11-1.109q2.924,0,5.847,0a3.662,3.662,0,0,1,.747.074.351.351,0,0,0,.364-.116c.444-.437.894-.868,1.363-1.321M54.48,118.24l-.066-.043a15.432,15.432,0,0,1-1.078,1.136c-.3.3-.741.92-1.189,1.009-.8.158-1.831-1.381-2.341-1.9l1.142-1.121,1.041,1.029,2.1-2.123H49.513v4.958H54.48Z" transform="translate(-37.855 -89.569)" fill="#fff"/>
    <path id="Path_1862" data-name="Path 1862" d="M57.253,161.007l1.131,1.138c-.151.139-.294.261-.428.393-.566.562-1.132,1.123-1.687,1.695a.5.5,0,0,0-.111.319c-.007,1.682,0,3.364,0,5.046,0,.772-.334,1.106-1.11,1.106h-6.08c-.794,0-1.127-.331-1.127-1.118q0-3.043,0-6.086c0-.79.33-1.121,1.124-1.121q2.91,0,5.821,0a3.473,3.473,0,0,1,.748.07.363.363,0,0,0,.386-.123c.433-.436.874-.864,1.339-1.322m-6.288,4.149L52,166.183l2.093-2.121H49.521v4.961H54.47v-2.956l-.064-.045a1.492,1.492,0,0,1-.148.21c-.566.573-1.127,1.153-1.709,1.71a.7.7,0,0,1-1.083.021c-.565-.547-1.111-1.114-1.668-1.676l1.167-1.131" transform="translate(-37.855 -127.415)" fill="#fff"/>
    <path id="Path_1863" data-name="Path 1863" d="M83.9,39.292a.762.762,0,0,1,.659-.84c.478-.072.965-.08,1.444-.145a9.015,9.015,0,0,0,3.979-1.6c.277-.193.546-.4.82-.595A.806.806,0,0,1,91.88,36.1c.405.281.8.581,1.207.857a8.43,8.43,0,0,0,4.462,1.427,3.2,3.2,0,0,1,.592.058.763.763,0,0,1,.643.937A12.689,12.689,0,0,1,97.735,42.6a14.037,14.037,0,0,1-3.554,4.457c-.693.614-1.411,1.2-2.12,1.8-.595.5-.866.5-1.444,0A42.41,42.41,0,0,1,87.2,45.78a12.669,12.669,0,0,1-3.267-6.241c-.018-.093-.022-.189-.029-.247m13.057.755c-.031-.024-.049-.047-.072-.053a.942.942,0,0,0-.152-.03,10.781,10.781,0,0,1-5.188-2.083.276.276,0,0,0-.4.006,10.82,10.82,0,0,1-4.91,2.034c-.166.024-.331.061-.495.092a.607.607,0,0,0,.007.11,11.288,11.288,0,0,0,3.214,5.131c.711.646,1.465,1.245,2.19,1.876a.246.246,0,0,0,.391,0c.468-.412.936-.825,1.42-1.218a11.987,11.987,0,0,0,2.684-2.942,11.331,11.331,0,0,0,1.31-2.921" transform="translate(-66.399 -28.409)" fill="#fff"/>
  </g>
</svg>
