<svg id="Group_8268" data-name="Group 8268" xmlns="http://www.w3.org/2000/svg" xmlns:xlink="http://www.w3.org/1999/xlink" width="50.579" height="61.314" viewBox="0 0 50.579 61.314">
  <defs>
    <clipPath id="clip-path">
      <rect id="Rectangle_1213" data-name="Rectangle 1213" width="50.579" height="61.314" fill="#fff"/>
    </clipPath>
  </defs>
  <g id="Group_8267" data-name="Group 8267" clip-path="url(#clip-path)">
    <path id="Path_1847" data-name="Path 1847" d="M49.13,69.165c-2.336,0-4.673.037-7.006-.034a1.61,1.61,0,0,1-1.211-.737,27.475,27.475,0,0,0-4.662-7.1,17.157,17.157,0,1,1,26.02-.221,26.869,26.869,0,0,0-4.873,7.4,1.486,1.486,0,0,1-1.135.657c-2.377.061-4.755.03-7.134.03M63,50.451A13.855,13.855,0,0,0,49.156,36.587c-12.057.014-18.212,15.066-9.777,23.6C47.886,68.792,62.987,62.541,63,50.451" transform="translate(-23.887 -24.514)" fill="#fff"/>
    <path id="Path_1848" data-name="Path 1848" d="M72.058,208.551c-2,0-9.181,1.309-9.245-1.884-.067-3.334,7.209-2,9.229-2,2.117,0,8.607-1.275,9.246,1.58.811,3.628-7.453,2.3-9.23,2.3" transform="translate(-46.792 -152.256)" fill="#fff"/>
    <path id="Path_1849" data-name="Path 1849" d="M72.017,185.6c-1.892,0-9.034,1.264-9.207-1.771-.184-3.228,7.342-2,9.272-2,2.116,0,8.568-1.206,9.191,1.482.844,3.644-7.4,2.29-9.256,2.289" transform="translate(-46.788 -135.252)" fill="#fff"/>
    <path id="Path_1850" data-name="Path 1850" d="M81.106,229.244H90.3a4.872,4.872,0,0,1-4.3,2.838,4.974,4.974,0,0,1-4.887-2.838" transform="translate(-60.42 -170.775)" fill="#fff"/>
    <path id="Path_1851" data-name="Path 1851" d="M97.048,1.849c-.134,1.855-1.591,2.414-2.062.433C94.7,1.072,96.2-1.176,96.945.749a3.889,3.889,0,0,1,.1,1.1" transform="translate(-70.733 0)" fill="#fff"/>
    <path id="Path_1852" data-name="Path 1852" d="M1.718,98.137c-1.435-.183-2.624-1.2-.763-2,.993-.43,3.524.6,1.973,1.708a3.113,3.113,0,0,1-1.21.293" transform="translate(0 -71.542)" fill="#fff"/>
    <path id="Path_1853" data-name="Path 1853" d="M187.593,96.33c1.994,0,2.109,2.063-.132,1.97-2.128-.088-1.893-1.974.132-1.97" transform="translate(-138.536 -71.761)" fill="#fff"/>
    <path id="Path_1854" data-name="Path 1854" d="M30.663,161.833c-.6.49-2.951,3.077-3.259,1.07-.206-1.34,1.6-1.978,2.643-2.04.133-.008.294.445.616.97" transform="translate(-20.402 -119.835)" fill="#fff"/>
    <path id="Path_1855" data-name="Path 1855" d="M28.292,26.45c.573.749,2.444,2.4,1.573,3.164s-2-1.041-2.57-1.764c-.077-.1.486-.7,1-1.4" transform="translate(-20.328 -19.704)" fill="#fff"/>
    <path id="Path_1856" data-name="Path 1856" d="M160.926,26.715c.915,1.105,1.4,1.575.257,2.723-.458.46-2.847.838-2.241-.107.539-.841,1.193-1.609,1.984-2.616" transform="translate(-118.331 -19.901)" fill="#fff"/>
    <path id="Path_1857" data-name="Path 1857" d="M162.4,162.683c-1.015.541-3.376.412-3.2-1.452.191-2.053,2.587.39,3.258.9l-.055.551" transform="translate(-118.585 -119.506)" fill="#fff"/>
    <path id="Path_1858" data-name="Path 1858" d="M64.73,79.173C54.4,79.141,49.093,66.166,56.4,58.9s20.247-2.006,20.256,8.37a11.934,11.934,0,0,1-11.923,11.9M63.465,59.5l.121.359c-2.888,0-5.878,1.724-5.118,5.083.87,3.84,4.825,2.977,7.738,3.255,4.3.411,3.326,4.236-.576,4.359-1.163.037-3.374.336-4.406-.445-.857-.649-1.125-1.921-1.991-2.69-2.181,3.381,1.632,4.881,4.485,5.215l-.244.3,1.305,1.344c1.485-1.625,1.668-1.366,3.507-2.014a4.1,4.1,0,0,0,2.834-3.181c.655-3.764-2.766-4.838-5.726-4.9-1.717-.033-4.435.542-4.956-1.675-.462-1.966,1.244-2.508,2.783-2.673,1.241-.133,3.948-.416,5.064.4.963.7,1.1,1.935,2.134,2.707,2.192-3.335-1.872-4.861-4.573-5.194l.238-.275-1.316-1.365Z" transform="translate(-39.49 -41.367)" fill="#fff"/>
  </g>
</svg>
