<svg id="Group_8276" data-name="Group 8276" xmlns="http://www.w3.org/2000/svg" xmlns:xlink="http://www.w3.org/1999/xlink" width="50.13" height="50.131" viewBox="0 0 50.13 50.131">
  <defs>
    <clipPath id="clip-path">
      <rect id="Rectangle_1216" data-name="Rectangle 1216" width="50.13" height="50.131" fill="#fff"/>
    </clipPath>
  </defs>
  <g id="Group_8275" data-name="Group 8275" clip-path="url(#clip-path)">
    <path id="Path_1868" data-name="Path 1868" d="M47.607,30.073h.682A1.689,1.689,0,0,1,50.126,31.9q.006,6.13,0,12.259a5.684,5.684,0,0,1-2.474,4.877,5.89,5.89,0,0,1-3.468,1.089c-3.834.005-7.669-.017-11.5.008A5.971,5.971,0,0,1,26.732,43.9c.02-.66,0-1.321,0-1.982a1.284,1.284,0,0,0-.02-.147h-.486q-10.8,0-21.61,0a4.8,4.8,0,0,1-2.281-.436A4.06,4.06,0,0,1,.054,38.051,9.271,9.271,0,0,1,0,36.953Q0,20.583,0,4.213A4.155,4.155,0,0,1,3.415.09,6.444,6.444,0,0,1,4.56.01Q22.646,0,40.732,0A4.157,4.157,0,0,1,45,3.364a7.8,7.8,0,0,1,.111,1.484c.007,4.666.016,9.331-.012,14a1.974,1.974,0,0,0,.506,1.4,8.9,8.9,0,0,1,2,6.011c-.008,1.263,0,2.526,0,3.822M1.662,8.367v.554q0,6.266,0,12.532,0,5.448,0,10.9c0,1.787-.15,3.645.023,5.424a2.631,2.631,0,0,0,2.895,2.333c7.379.085,14.765,0,22.145,0,.077-1.486.021-2.99.018-4.478q0-1.107-.005-2.215a8.528,8.528,0,0,1,.06-2.081c.255-.987,1.117-1.243,2.028-1.262.369-.008.374-.013.415-.366a9.375,9.375,0,0,0-.006-1.084c0-.677,0-1.355,0-2.032a9.851,9.851,0,0,1,2.239-6.635,9.01,9.01,0,0,1,5.239-3.062,9.654,9.654,0,0,1,6.748,1.317c-.094-1.933-.014-3.887-.012-5.822q0-1.368,0-2.736c0-.6.245-1.254-.463-1.282-3.445-.137-6.925,0-10.373,0H1.662M28.4,36.749a.6.6,0,0,0,.095.019c.765,0,3.336-.439,3.222.892-.062.719-.772.752-1.334.749-.657,0-1.317-.031-1.973,0v1.7c.712,0,1.426-.011,2.139.008.566.015,1.2.113,1.173.827-.024.677-.634.8-1.184.819-.708.018-1.419-.007-2.127-.007v1.691c.778,0,3.547-.476,3.3.957-.2,1.165-2.43.672-3.237.718a4.315,4.315,0,0,0,3.365,3.265,19.15,19.15,0,0,0,3.221.07q1.746,0,3.492.005,1.814,0,3.627,0a13.365,13.365,0,0,0,3.086-.119,4.171,4.171,0,0,0,3.1-3.241,15.041,15.041,0,0,1-2.522-.02.826.826,0,0,1-.535-1.329c.442-.519,1.569-.312,2.172-.31.229,0,.811.127.969-.082.13-.171,0-.749.005-.968,0-.327.079-.491-.193-.628a4.19,4.19,0,0,0-1.207,0c-.583,0-1.52.175-1.84-.464-.81-1.612,2.542-1.2,3.243-1.2,0-.422.026-.856,0-1.278-.031-.51-.2-.413-.687-.414a5.916,5.916,0,0,1-2.184-.092.814.814,0,0,1-.083-1.406c.556-.352,1.621-.151,2.253-.147.231,0,.574.1.7-.109a2.745,2.745,0,0,0,0-.855c0-.224.073-.588-.109-.722-.141-.1-.776-.014-.948-.013-.67,0-2.812.187-2.2-1.162.289-.634,1.124-.487,1.685-.487.387,0,1.374.192,1.569-.155.138-.246.09-1.389-.175-1.522a2.333,2.333,0,0,0-.817,0c-.362,0-.725,0-1.087,0q-8.988-.006-17.976-.008v1.691c.72,0,1.441-.011,2.161,0,.555.011,1.15.158,1.154.836,0,.718-.694.805-1.252.807-.69,0-1.381-.009-2.071-.009ZM43.45,6.658c0-.86.02-1.683-.005-2.506a2.593,2.593,0,0,0-2.792-2.491c-1.917-.024-3.835,0-5.752,0q-9.977,0-19.954,0-5.021,0-10.042.008a3,3,0,0,0-2.846,1.17c-.635,1.033-.482,2.661-.372,3.813Zm-12.513,23.4c.068.006.122.016.177.016q7.327,0,14.654,0c.161,0,.189-.051.189-.2-.005-1.3-.024-2.61,0-3.914a7.257,7.257,0,0,0-.874-3.592,7.474,7.474,0,0,0-8.45-3.78,7.26,7.26,0,0,0-4.708,3.547,6.86,6.86,0,0,0-1,3.724c.03,1.345,0,2.691,0,4.036,0,.047,0,.093.008.154" transform="translate(0 -0.001)" fill="#fff"/>
    <path id="Path_1869" data-name="Path 1869" d="M26.925,133.491v6.66H33.62c.032-.633,0-1.269,0-1.9,0-.519-.053-1.166.547-1.37,1.456-.5,1.125,1.892,1.12,2.628-.009,1.139-.226,2.171-1.559,2.319a38.931,38.931,0,0,1-4.241.009H27.36a2.106,2.106,0,0,1-1.556-.448c-.869-.809-.545-2.406-.545-3.459,0-1.45-.1-2.946.026-4.39.125-1.413,1.014-1.716,2.28-1.732.854-.011,1.745-.066,2.6.009.484.043.95.3.935.85-.017.647-.59.8-1.119.807-.9.02-1.81,0-2.714,0-.1,0-.208.011-.338.018" transform="translate(-20.253 -105.908)" fill="#fff"/>
    <path id="Path_1870" data-name="Path 1870" d="M27.094,67.763q2.941,0,5.882.009c.218,0,.653.11.786-.116.166-.283,0-1.135,0-1.47,0-.628-.133-1.621.715-1.743s.941.686.948,1.306a6.317,6.317,0,0,1-.195,2.833,1.753,1.753,0,0,1-1.471.861c-1.013.07-2.057.01-3.072.01q-1.4,0-2.805-.006a2.52,2.52,0,0,1-2-.5,2.612,2.612,0,0,1-.482-1.967q0-1.474,0-2.948c0-.955-.064-1.937.006-2.889a1.768,1.768,0,0,1,1.1-1.628,7.328,7.328,0,0,1,2.316-.1c.649,0,1.954-.266,2.335.461,1.039,1.982-3.644.75-4.08,1.252-.184.212-.02,1.16-.019,1.473q0,.807,0,1.614,0,1.749.007,3.5c0,.007.007.014.027.054" transform="translate(-20.388 -47.711)" fill="#fff"/>
    <path id="Path_1871" data-name="Path 1871" d="M95.741,86.631H92.008c-.708,0-2.468.321-2.5-.808-.033-1.2,1.742-.88,2.492-.88l3.805,0h3.805c.72,0,2.339-.3,2.39.806.055,1.2-1.739.882-2.454.883H95.741Z" transform="translate(-71.937 -68.236)" fill="#fff"/>
    <path id="Path_1872" data-name="Path 1872" d="M40.849,136.6c.2-.232.369-.428.536-.627q1.488-1.784,2.973-3.569a.9.9,0,0,1,.931-.4.827.827,0,0,1,.446,1.352c-.367.478-.765.932-1.151,1.4q-1.4,1.669-2.794,3.337c-.031.037-.063.075-.1.111-.494.557-.928.6-1.463.094s-1.033-1.02-1.527-1.55a.788.788,0,0,1,.016-1.175.816.816,0,0,1,1.181.053c.317.316.622.643.949.982" transform="translate(-30.901 -106.067)" fill="#fff"/>
    <path id="Path_1873" data-name="Path 1873" d="M40.818,64.35l1.931-2.322a11.657,11.657,0,0,1,1.835-2.144.815.815,0,0,1,1.269.887,3.884,3.884,0,0,1-.784,1.079c-.329.4-.665.8-1,1.2q-.914,1.091-1.832,2.179c-.591.7-1.132,1.567-2.018.767-.335-.3-.651-.631-.968-.952-.263-.266-.686-.58-.8-.948a.81.81,0,0,1,1.359-.767c.339.328.663.672,1.005,1.021" transform="translate(-30.875 -48.003)" fill="#fff"/>
    <path id="Path_1874" data-name="Path 1874" d="M93.617,65.519c-.877,0-1.754.007-2.631,0-.619-.006-1.643-.041-1.507-.936.11-.723.87-.725,1.443-.726q1.362,0,2.724,0,1.294,0,2.587.005c.625,0,1.625.019,1.542.908-.071.771-.877.75-1.466.753-.9,0-1.794,0-2.692,0" transform="translate(-71.904 -51.317)" fill="#fff"/>
    <path id="Path_1875" data-name="Path 1875" d="M93.663,137.852c-1.093,0-2.186,0-3.28,0a.83.83,0,0,1-.823-1.132.765.765,0,0,1,.578-.479,2.111,2.111,0,0,1,.413-.043q3.12-.005,6.241,0a.9.9,0,0,1,.979.607.819.819,0,0,1-.8,1.05c-1.1.005-2.2,0-3.3,0" transform="translate(-71.927 -109.457)" fill="#fff"/>
    <path id="Path_1876" data-name="Path 1876" d="M93.163,159.089c-.836,0-1.673.016-2.509,0-.524-.01-1.108-.093-1.182-.726-.079-.686.523-.927,1.09-.95.833-.034,1.675,0,2.509,0h2.376c.556,0,1.3-.049,1.478.635s-.484,1.011-1.048,1.04c-.9.046-1.813,0-2.714,0Z" transform="translate(-71.903 -126.499)" fill="#fff"/>
    <path id="Path_1877" data-name="Path 1877" d="M184.8,187.883a2.486,2.486,0,1,1,2.761-3.912,2.488,2.488,0,0,1-.066,3.217c-.232.264-.79.439-.962.69-.417.609.242,1.68-.217,2.335a.842.842,0,0,1-1.515-.535c0-.594,0-1.189,0-1.794m1.665-2.32a.813.813,0,0,0-.815-.852.841.841,0,1,0,.815.852" transform="translate(-147.202 -147.126)" fill="#fff"/>
    <path id="Path_1878" data-name="Path 1878" d="M97.335,18.67H86.47c-.139,0-.278,0-.415-.016a.821.821,0,0,1-.788-.785.786.786,0,0,1,.7-.858,1.665,1.665,0,0,1,.316-.024q11.085,0,22.171,0a1.322,1.322,0,0,1,.561.128.8.8,0,0,1,.429.835.836.836,0,0,1-.75.7c-.194.019-.391.02-.587.02H97.335Z" transform="translate(-68.527 -13.652)" fill="#fff"/>
    <path id="Path_1879" data-name="Path 1879" d="M65.09,18.768c-.572-.026-1.244-.126-1.244-.848,0-.74.67-.821,1.256-.821.56,0,1.175.05,1.239.741.073.778-.655.9-1.252.928" transform="translate(-51.313 -13.742)" fill="#fff"/>
    <path id="Path_1880" data-name="Path 1880" d="M43.88,18.723c-.535-.026-1.123-.1-1.221-.734-.1-.663.439-.909,1-.935.527-.025,1.23-.058,1.435.551a.841.841,0,0,1-.708,1.095c-.162.016-.325.016-.5.023" transform="translate(-34.275 -13.698)" fill="#fff"/>
    <path id="Path_1881" data-name="Path 1881" d="M22.644,18.685c-.531-.028-1.1-.089-1.21-.714-.117-.68.416-.934.992-.963.515-.026,1.215-.046,1.409.548a.846.846,0,0,1-.712,1.1c-.154.017-.309.018-.479.028" transform="translate(-17.213 -13.661)" fill="#fff"/>
  </g>
</svg>
