<svg xmlns="http://www.w3.org/2000/svg" width="62.939" height="46.186" viewBox="0 0 62.939 46.186">
  <g id="Group_8149" data-name="Group 8149" transform="translate(-281.643 693.222)">
    <path id="Path_720" data-name="Path 720" d="M305.26-660.042c-2.054.751-4.016,1.443-5.957,2.19a2.909,2.909,0,0,0-1.972,2.952q0,3.195,0,6.388c0,.682-.047,1.436-.933,1.446s-.953-.716-.952-1.416c.007-2.13-.044-4.261.027-6.388a19.127,19.127,0,0,1,.511-2.778c-.412-.528-.857-.4-1.455.152-2.158,2.006-3.969,2-6.14.007a1.083,1.083,0,0,0-1.473-.239c-3.57,1.861-3.411,1.266-3.4,5.439,0,1.35.071,2.708-.05,4.05-.037.424-.587.8-.9,1.2-.3-.415-.84-.819-.856-1.246-.084-2.206-.074-4.42-.021-6.631a3.684,3.684,0,0,1,2.065-3.263c.75-.413,1.522-.787,2.264-1.167-.951-.788-1.928-1.5-2.778-2.35a1.956,1.956,0,0,1-.463-1.406c.232-2.39.682-4.764.825-7.157.242-4.035,2.742-7.284,6.377-8a7.744,7.744,0,0,1,9.137,6.622c.292,1.976.307,3.994.468,5.992a9.511,9.511,0,0,0,.242,1.451c.478,2,.331,2.443-1.349,3.676-.521.382-1.088.706-1.939,1.252a5.435,5.435,0,0,0,1.405-.018A28.663,28.663,0,0,1,301.5-660.6c2.007-.4,3.192-1.793,4.42-3.184.623-.705.509-3.322-.162-3.994a11.8,11.8,0,0,1-3.437-8.41,14.543,14.543,0,0,0-.484-3.107,15.254,15.254,0,0,1-.165-7.294,8.646,8.646,0,0,1,8.193-6.6c4.544-.075,9.09-.019,13.636-.031.734,0,1.392.159,1.387,1.012a112.371,112.371,0,0,1-.239,11.4c-.241,2.242-.667,4.485-.883,6.754a10.059,10.059,0,0,1-3.126,6.239c-.893.893-.8,3.211-.133,4.246,1.541,2.4,4.119,2.881,6.5,3.7,1.321.456,3.012-.618,2.879-1.671a1.819,1.819,0,0,0-.534-1.01,7.713,7.713,0,0,1-2.413-5.713,5.1,5.1,0,0,0-.353-1.889,5.684,5.684,0,0,1,4.382-8.146,57.806,57.806,0,0,1,6.619-.153c.9-.013,1.8.009,2.7,0s1.4.387,1.343,1.328c-.142,2.543.472,5.163-.88,7.591a3.857,3.857,0,0,0-.1,1.7,7.144,7.144,0,0,1-2.335,5.347,2.261,2.261,0,0,0-.548,1.575c.012.272.643.607,1.052.754.883.32,1.8.524,2.7.8a3.879,3.879,0,0,1,3.057,4.059c.018,2.252,0,4.5.007,6.757,0,.688-.013,1.449-.888,1.47-.987.024-.959-.818-.962-1.525-.007-2.128.012-4.258-.009-6.388-.015-1.718-.407-2.209-2.071-2.71a8.355,8.355,0,0,1-1.409-.415,2.624,2.624,0,0,0-3.827,1.005,3.46,3.46,0,0,0-.648,1.589c-.071,2.332-.034,4.667-.028,7,0,.694-.046,1.429-.925,1.442-.9.015-.948-.742-.949-1.423-.007-2.375,0-4.751-.006-7.126,0-.7-1.708-2.958-2.358-3.051-.273-.04-.58.155-1.015.286a6.362,6.362,0,0,1,1.337,4.692c-.047,1.759.052,3.526-.052,5.279-.028.472-.5,1.232-.869,1.3-.779.146-.946-.589-.949-1.247-.007-2.088.01-4.177-.01-6.265a3.1,3.1,0,0,0-2.4-3.411c-1.8-.666-3.609-1.309-5.545-2.01-.694,1.038-1.387,2.084-2.09,3.126-1.221,1.814-2.286,1.917-3.852.385-.252-.247-.517-.48-.983-.911v5.715q0,1.534,0,3.07c0,.707.047,1.563-.911,1.579-1.06.016-.973-.9-.976-1.637-.007-2.414,0-4.831,0-7.247v-1.457c-.5.456-.821.735-1.126,1.03-1.38,1.336-2.519,1.218-3.615-.393C306.733-657.822,306.037-658.879,305.26-660.042ZM323.1-691.253c-4.847,0-9.437-.189-14,.069a5.833,5.833,0,0,0-5.508,4.856,15.011,15.011,0,0,0-.018,5.933,42.621,42.621,0,0,1,.714,5.3,8.711,8.711,0,0,0,5.273,7.7,8.831,8.831,0,0,0,12.452-7.6,12.683,12.683,0,0,1,.214-3.529C323.739-682.7,322.654-686.96,323.1-691.253Zm16.663,14.769c-3.009,0-5.877-.17-8.714.053-2.4.187-3.758,2.968-2.931,5.231.382,1.044.426,2.205.735,3.282a12.086,12.086,0,0,0,1.234,3.372,4.467,4.467,0,0,0,5.135,1.643,4.716,4.716,0,0,0,3.485-4.156c.125-1.011-.13-2.178.292-3.023C340.022-672.131,339.681-674.234,339.761-676.484ZM297.485-668.8c-.061-1.043-.047-1.7-.142-2.339a5.973,5.973,0,0,0-6.23-5.38c-3.738.211-5.873,3.545-5.7,7.527a.5.5,0,0,0,.217.385c.9.319.834,1.1.946,1.824a4.9,4.9,0,0,0,4.445,4.062,4.833,4.833,0,0,0,5.118-3.34,2.043,2.043,0,0,0-.158-1.469c-1.067-1.764-2.826-2.451-4.73-2.99-1.409-.4-1.961.583-2.788,1.256a1.244,1.244,0,0,1-1.088.1,1.051,1.051,0,0,1-.393-.9c.136-1,2.285-2.536,3.306-2.428A10.123,10.123,0,0,1,297.485-668.8Zm20.484,2.921a10.893,10.893,0,0,1-9.7-.035,1.8,1.8,0,0,0,.883,2.339,30.921,30.921,0,0,1,3.231,2.2,1.085,1.085,0,0,0,1.511-.013,34.793,34.793,0,0,1,3.231-2.2A1.724,1.724,0,0,0,317.969-665.878Zm-8.734,8.444,2.429-2.215-4.308-2.94-.9,1Zm5.608-2.379,2.2,2.357,2.829-4.252-.928-.909Zm-21.451-1.1h-3.851c-.3,1.067-.4,2.019.739,2.661a2.19,2.19,0,0,0,2.294.037C293.787-658.851,293.629-659.847,293.393-660.909Zm40.423,2.884c.655-1.122,2.109-1.439,1.976-2.885h-4.012C331.756-659.484,333.106-659.13,333.816-658.025ZM285.2-664.7c-.736,2.161-.217,2.972,2.583,3.375Zm12.566-.034c-.531.694-.964,1.274-1.412,1.841-.424.533-1.4.816-.826,1.814C298.107-662.014,298.328-662.368,297.766-664.73Z" transform="translate(0)" fill="#fff"/>
    <path id="Path_721" data-name="Path 721" d="M322.224-663.308a16.371,16.371,0,0,1-.044,2.694c-.072.428-.608.778-.934,1.164-.291-.382-.812-.753-.831-1.148a49.844,49.844,0,0,1,0-5.4c.022-.4.614-.77.943-1.154.288.381.764.734.825,1.145A19.066,19.066,0,0,1,322.224-663.308Z" transform="translate(18.417 12.409)" fill="#fff"/>
    <path id="Path_722" data-name="Path 722" d="M284.34-663.159a11.607,11.607,0,0,1,.04-2.187c.072-.369.558-.657.858-.98.31.313.871.611.89.942a36.924,36.924,0,0,1-.007,4.625c-.021.326-.59.615-.906.922-.292-.335-.769-.638-.835-1.014A13.217,13.217,0,0,1,284.34-663.159Z" transform="translate(1.267 12.8)" fill="#fff"/>
    <path id="Path_723" data-name="Path 723" d="M311.556-663.09a9.066,9.066,0,0,1-.038,1.954c-.087.388-.54.692-.829,1.035-.323-.3-.9-.587-.925-.916a23.743,23.743,0,0,1,0-3.914c.027-.323.579-.763.949-.834.218-.041.722.5.8.846a8.212,8.212,0,0,1,.037,1.83Z" transform="translate(13.344 13.065)" fill="#fff"/>
    <path id="Path_724" data-name="Path 724" d="M296.872-663a8.586,8.586,0,0,1-.041,1.951c-.092.37-.584.643-.9.961-.306-.325-.846-.63-.875-.979a22.448,22.448,0,0,1,0-3.793c.028-.337.581-.629.894-.942.306.32.779.6.878.974A7.38,7.38,0,0,1,296.872-663Z" transform="translate(6.347 13.049)" fill="#fff"/>
    <path id="Path_725" data-name="Path 725" d="M299.571-685.418a8.891,8.891,0,0,1-.043,2.125c-.109.4-.623.692-.955,1.032-.291-.341-.763-.647-.832-1.027a4.234,4.234,0,0,1,.034-2.175c.248-.636.859-1.476,1.432-1.584a19.947,19.947,0,0,1,11.328.644,9.086,9.086,0,0,1,2.437,1.589,1.326,1.326,0,0,1,.063,1.247,1.2,1.2,0,0,1-1.151.1C308.181-686.38,303.939-685.6,299.571-685.418Z" transform="translate(7.601 2.694)" fill="#fff"/>
    <path id="Path_726" data-name="Path 726" d="M315.6-680.015c2.018.415,3.766.745,5.5,1.144.633.146,1.179.54.883,1.312s-.917.534-1.548.412c-1.547-.3-3.11-.533-4.673-.742-.677-.09-1.474-.137-1.334-1C314.5-679.323,315.2-679.655,315.6-680.015Z" transform="translate(15.595 6.285)" fill="#fff"/>
  </g>
</svg>
