<svg xmlns="http://www.w3.org/2000/svg" width="60.938" height="52.903" viewBox="0 0 60.938 52.903">
  <g id="Group_8147" data-name="Group 8147" transform="translate(461.712 495.951)">
    <path id="Path_698" data-name="Path 698" d="M-361.7-390.887a8.882,8.882,0,0,1-2.045-.647,1.4,1.4,0,0,1-.536-1.232c.107-.327.743-.629,1.175-.674a13.95,13.95,0,0,1,2.867,0c.434.045,1.072.33,1.184.656a1.375,1.375,0,0,1-.512,1.238A9.808,9.808,0,0,1-361.7-390.887Z" transform="translate(-69.648 -73.242)" fill="#fff"/>
    <path id="Path_699" data-name="Path 699" d="M-336.1-418.057c-.724.732-1.137,1.521-1.644,1.585-1,.128-1.082-.79-1.091-1.582s.114-1.7,1.088-1.6C-337.244-419.6-336.824-418.794-336.1-418.057Z" transform="translate(-87.857 -54.549)" fill="#fff"/>
    <path id="Path_700" data-name="Path 700" d="M-376.215-417.975c-.738.677-1.189,1.443-1.692,1.479-1,.071-1.027-.854-1.034-1.641-.007-.828.174-1.694,1.138-1.536C-377.3-419.591-376.914-418.76-376.215-417.975Z" transform="translate(-59.18 -54.524)" fill="#fff"/>
    <path id="Path_701" data-name="Path 701" d="M-433.593-443.048a.774.774,0,0,0,.117-.048,1.465,1.465,0,0,0,.764-1,1.414,1.414,0,0,0-.789-.967,3.614,3.614,0,0,0-1.4-.1q-8.974-.006-17.949,0h-1.685l-.337-.462a30.182,30.182,0,0,1,3.274-4.883,10.147,10.147,0,0,1,3.946-1.989c1.421-.493,3.143-1.272,4.366-.853s1.986,2.16,2.94,3.332c.629.773,1.268,1.541,1.847,2.351a1.4,1.4,0,0,0,2.086.434c1.409-.784,2.812-1.587,4.275-2.258a2.241,2.241,0,0,1,1.665-.007c1.421.648,2.789,1.42,4.145,2.2a1.528,1.528,0,0,0,2.311-.47c1.242-1.678,2.591-3.276,3.848-4.944a1.365,1.365,0,0,1,1.764-.655,25.114,25.114,0,0,0,3.732.888c4.06.695,5.374,3.88,6.842,7.315h-19.448c-.38,0-.829-.125-1.124.034a9,9,0,0,0-1.374,1.1,10.009,10.009,0,0,0,1.322.978h27.686a3.141,3.141,0,0,0-2.422-1.7c-2.318-.266-2.967-1.65-3.581-3.4a8.285,8.285,0,0,0-.729-1.382,9.831,9.831,0,0,0-7.094-5.175c-2.659-.454-5.274-1.171-7.9-1.793a2.147,2.147,0,0,1-1.125-.487c-.54-.653.089-3.856.648-4.513,1.649-1.937,3.213-3.945,4.843-5.9a2.364,2.364,0,0,1,1.147-.864,5.316,5.316,0,0,0,4.469-3.88,4.4,4.4,0,0,0-1.961-5.264c.858-1.523,1.745-2.919,2.419-4.411.186-.413-.264-1.114-.422-1.683a4.917,4.917,0,0,0-1.475.9c-.541.7-.819,1.6-1.315,2.345-1.031,1.552-2.338,2.553-4.393,2.2-1.352-.231-2.747-.188-4.111-.364-4.677-.6-9.3-1.392-13.3-4.167-.846-.587-1.363-.162-1.859.569a15.975,15.975,0,0,1-2.154,2.8,13.3,13.3,0,0,1-2.8,1.491c.135-2.756.119-4.992.38-7.2.387-3.273,2.079-4.757,5.435-5.147a1.942,1.942,0,0,0,1.248-.516c1.6-2.188,3.817-2.24,6.161-1.881,5.014.769,10.054,2.024,14.788-1.114a9.817,9.817,0,0,1,2.561,5.872c.067.784.39,1.549,1.276,1.268a1.816,1.816,0,0,0,.843-1.492,11.793,11.793,0,0,0-3.231-7.265,1.58,1.58,0,0,0-2.441-.317,9.271,9.271,0,0,1-6.17,1.785c-2.078-.137-4.15-.414-6.213-.711-3.221-.464-6.369-.754-8.854,2.016a1.7,1.7,0,0,1-.914.318c-3.919.709-5.957,2.647-6.537,6.607a48.225,48.225,0,0,0-.3,6.243c-.013.864-.126,1.309-1.145,1.528a4.141,4.141,0,0,0-3.2,5.075,5.067,5.067,0,0,0,4.22,4.264,2.471,2.471,0,0,1,1.7,1.252,21.592,21.592,0,0,0,3.663,4.667,4.9,4.9,0,0,1,1.8,4.421,1.4,1.4,0,0,1-1.335,1.58c-2.872.624-5.713,1.4-8.6,1.965a8,8,0,0,0-5.325,3.494,36.7,36.7,0,0,0-2.586,4.877,1.384,1.384,0,0,1-1.29,1.011,4.619,4.619,0,0,0-3.764,2.07Zm16.834-32.657c1.358.064,2.122.653,2.271,1.92a2.815,2.815,0,0,1-2.271,3.093Zm-29.122,4.964a2.686,2.686,0,0,1-2.261-2.834c.032-1.284.646-1.879,2.261-2.094Zm14.493,17.874c-1.184.017-2.4-1.5-3.585-2.358-2.023-1.469-2.018-1.476-1.577-4.245a10.615,10.615,0,0,0,10.486,0c.453,1.909.258,3.338-1.569,4.287C-428.958-454.491-430.13-452.885-431.388-452.867Zm9.592-1.391c-.306.47-.439.712-.607.927-1.017,1.3-2.042,2.6-3.148,4l-3.728-2a34.527,34.527,0,0,1,4.474-3.171C-424.084-454.87-422.933-454.38-421.8-454.258Zm-21.87-21.562c2.8-.235,4.66-1.981,6.193-4.386,5.752,3.326,12.13,3.862,18.464,4.366,1.563,8.342-6.369,15.2-11.837,15.605a7.667,7.667,0,0,1-2.526-.29A14.444,14.444,0,0,1-443.666-475.82Zm7.29,22.2a31.214,31.214,0,0,0,3.047,2.29l-3.727,2.005-3.682-4.664C-439.115-454.816-437.729-454.929-436.376-453.622Z" fill="#fff"/>
  </g>
</svg>
