<svg xmlns="http://www.w3.org/2000/svg" width="53.888" height="53.796" viewBox="0 0 53.888 53.796">
  <g id="Group_8157" data-name="Group 8157" transform="translate(141.453 672.741)">
    <path id="Path_758" data-name="Path 758" d="M-104.91-590.453l.357,1.6-1.106.475c2.444.523,4.6,1.149,6.792,1.39a12.961,12.961,0,0,0,3.713-.617c1.1-.217,2.186-.474,3.5-.761l-1.043-.5.353-1.6c1.8.393,3.525.756,5.239,1.157a1.671,1.671,0,0,1,.719.456c1.111,1.089,2.222,2.179,3.3,3.3.768.8.585,1.389-.482,1.734-2,.646-2,.646-2,2.8,0,1.953-.02,3.907.01,5.86a1.185,1.185,0,0,1-.984,1.321c-3.842,1.144-7.672,2.329-11.515,3.471a2.12,2.12,0,0,1-1.146-.007c-3.808-1.132-7.6-2.311-11.413-3.433a1.294,1.294,0,0,1-1.081-1.47c.04-2.351,0-4.7.026-7.054.009-.664-.1-1.051-.863-1.194-2.91-.545-2.306-1.259-.825-2.912a9.677,9.677,0,0,1,6.709-3.655A13.762,13.762,0,0,0-104.91-590.453Zm7.188,18.18c3.427-1.037,6.708-2.022,9.98-3.037a.721.721,0,0,0,.407-.527c.027-2.3.018-4.6.018-7-2.542.649-4.961,1.232-7.358,1.895a1.518,1.518,0,0,1-2-.754c-.249-.443-.59-.834-1.048-1.468ZM-109.9-582.835v7.42l10.3,3.115v-10.771a10,10,0,0,0-.818,1.132c-.564,1.105-1.355,1.256-2.514.91C-105.171-581.7-107.463-582.214-109.9-582.835Zm-2-2.312c3.15.8,6.254,1.6,9.366,2.364a.848.848,0,0,0,.712-.242c.576-.733,1.092-1.513,1.691-2.363a67.377,67.377,0,0,1-7.074-1.6,3.608,3.608,0,0,0-4.59,1.548A2.322,2.322,0,0,0-111.894-585.147Zm14.755-.235c.523.738.987,1.3,1.344,1.919a1.193,1.193,0,0,0,1.588.611c2.679-.738,5.378-1.408,8.067-2.109.256-.067.5-.169,1.049-.356-.792-.7-1.389-1.282-2.04-1.791a1.205,1.205,0,0,0-.868-.237C-91-586.723-94-586.063-97.14-585.382Z" transform="translate(-15.881 -48.655)" fill="#fff"/>
    <path id="Path_759" data-name="Path 759" d="M-30.985-622.719c0,1.735.01,3.47,0,5.2-.011,1.42-.64,2.063-2.046,2.068q-5.368.018-10.736,0a1.768,1.768,0,0,1-1.986-2.017q-.019-5.367,0-10.734a1.766,1.766,0,0,1,1.991-2.012q5.422-.021,10.845,0a1.745,1.745,0,0,1,1.931,1.961C-30.971-626.406-30.985-624.562-30.985-622.719Zm-4.7-.292a3.8,3.8,0,0,1,2.1,3.976c-.029.4.012.8-.007,1.192-.033.7.282.773.81.549v-11.114H-44.017c0,3.6-.011,7.137.027,10.673,0,.206.4.407.608.61.251-2.368-.22-4.7,2.3-5.842-.552-2.009-.254-3.215.953-4.08a3.015,3.015,0,0,1,3.546.03C-35.4-626.146-35.1-624.9-35.684-623.011Zm.237,5.808c.342-2.488.137-3.546-.757-4.076-.718-.425-3.952-.372-4.512.133-1.27,1.147-.466,2.6-.722,3.943Zm-2.965-8.67c-.78.13-1.285.555-1.237,1.368a1.191,1.191,0,0,0,1.367,1.212,1.18,1.18,0,0,0,1.187-1.285C-37.108-625.389-37.621-625.791-38.411-625.873Z" transform="translate(-56.585 -25.144)" fill="#fff"/>
    <path id="Path_760" data-name="Path 760" d="M-78.75-645.4a7.921,7.921,0,0,1-.872.995c-.8.624-.851,1.212-.03,1.731a1.058,1.058,0,0,1,.485,1.548,28.682,28.682,0,0,1-1.419,2.537,1.354,1.354,0,0,1-2.089.563.843.843,0,0,0-1.3.748,1.268,1.268,0,0,1-1.389,1.422c-1.074.028-2.152,0-3.225-.058-.676-.037-.984-.454-1.039-1.15-.074-.944-.7-1.3-1.529-.865a1.1,1.1,0,0,1-1.6-.338,25.551,25.551,0,0,1-1.558-2.457c-.435-.8-.481-1.519.528-2.083a.793.793,0,0,0-.045-1.462,1.234,1.234,0,0,1-.544-1.9,25.318,25.318,0,0,1,1.443-2.4,1.248,1.248,0,0,1,1.928-.452.911.911,0,0,0,1.368-.785,1.218,1.218,0,0,1,1.32-1.366,24.206,24.206,0,0,1,2.693-.059c.919.051,1.69.3,1.652,1.53-.02.653.815,1,1.459.627a1.116,1.116,0,0,1,1.684.343C-80.116-647.668-79.468-646.56-78.75-645.4Zm-13.9-.342a2.8,2.8,0,0,1,0,4.482c.119.241.226.506.373.746.166.271.369.519.545.763a3.19,3.19,0,0,1,4.068,2.239h1.776c.591-1.9,1.819-2.587,4.119-2.3l.833-1.5a2.811,2.811,0,0,1-.053-4.481c-.591-1.3-.591-1.3-1.96-1.257a3.941,3.941,0,0,1-2.8-1.926,1.446,1.446,0,0,0-1.006-.588c-.429-.058-.981-.23-1.175.556-.237.955-1.858,2.173-2.719,1.913C-91.984-647.5-92.269-646.682-92.654-645.744Z" transform="translate(-27.698 -12.707)" fill="#fff"/>
    <path id="Path_761" data-name="Path 761" d="M-134.171-657.962c-1.735,0-3.471.01-5.205,0-1.416-.011-2.063-.644-2.067-2.047q-.017-5.367,0-10.735a1.766,1.766,0,0,1,2.018-1.984q5.368-.019,10.736,0a1.765,1.765,0,0,1,2.011,1.99q.022,5.422,0,10.843a1.745,1.745,0,0,1-1.962,1.93C-130.484-657.947-132.328-657.962-134.171-657.962Zm-5.492-1.824h11.2V-670.93h-11.2Z" transform="translate(0 0)" fill="#fff"/>
    <path id="Path_762" data-name="Path 762" d="M-45.761-665.347c0-1.771-.01-3.542,0-5.313.01-1.42.639-2.067,2.042-2.071q5.368-.018,10.736,0a1.763,1.763,0,0,1,1.99,2.012q.02,5.367,0,10.734a1.764,1.764,0,0,1-1.986,2.017q-5.422.023-10.845,0a1.748,1.748,0,0,1-1.935-1.957C-45.775-661.733-45.761-663.54-45.761-665.347Zm1.8-5.6v11.18H-32.8v-11.18Z" transform="translate(-56.585)" fill="#fff"/>
    <path id="Path_763" data-name="Path 763" d="M-134.039-615.439c-1.735,0-3.471.006-5.206,0-1.573-.007-2.194-.6-2.2-2.136q-.012-5.259,0-10.518c0-1.486.627-2.112,2.107-2.116q5.26-.014,10.519,0c1.5,0,2.139.622,2.143,2.08q.016,5.313,0,10.626a1.793,1.793,0,0,1-2.052,2.062C-130.5-615.428-132.268-615.439-134.039-615.439Zm-5.587-12.984v11.155h11.156v-11.155Z" transform="translate(-0.002 -25.147)" fill="#fff"/>
    <path id="Path_764" data-name="Path 764" d="M-77.5-608.9h1.6v6.861h-1.6Z" transform="translate(-37.822 -37.752)" fill="#fff"/>
    <path id="Path_765" data-name="Path 765" d="M-88.069-613.1h1.588v5.988h-1.588Z" transform="translate(-31.569 -35.266)" fill="#fff"/>
    <path id="Path_766" data-name="Path 766" d="M-65.268-607.092h-1.611v-5.992h1.611Z" transform="translate(-44.1 -35.278)" fill="#fff"/>
    <path id="Path_767" data-name="Path 767" d="M-86.485-594.4h-1.607v-1.626h1.607Z" transform="translate(-31.555 -45.366)" fill="#fff"/>
    <path id="Path_768" data-name="Path 768" d="M-66.871-596.068h1.6v1.622h-1.6Z" transform="translate(-44.104 -45.341)" fill="#fff"/>
    <path id="Path_769" data-name="Path 769" d="M-77.6-588.014v-1.59h1.648v1.59Z" transform="translate(-37.757 -49.163)" fill="#fff"/>
    <path id="Path_770" data-name="Path 770" d="M-77.071-637.392a3.485,3.485,0,0,1-3.493,3.511,3.485,3.485,0,0,1-3.456-3.438,3.486,3.486,0,0,1,3.493-3.511A3.484,3.484,0,0,1-77.071-637.392Zm-3.519,1.764a1.747,1.747,0,0,0,1.773-1.684,1.752,1.752,0,0,0-1.685-1.773,1.746,1.746,0,0,0-1.772,1.684A1.747,1.747,0,0,0-80.59-635.628Z" transform="translate(-33.963 -18.871)" fill="#fff"/>
    <path id="Path_771" data-name="Path 771" d="M-132.183-659.565a11.453,11.453,0,0,1-.968-1.075,11.82,11.82,0,0,1-.741-1.335,5.2,5.2,0,0,1,1.444-.691,2.084,2.084,0,0,0,1.938-1.388c.18-.47.708-.808,1.079-1.205.38.384.947.7,1.1,1.164.367,1.1,1.15,1.312,2.134,1.442.435.057,1.069.345,1.175.67a1.508,1.508,0,0,1-.552,1.231,2.231,2.231,0,0,0-.83,2.644,1.555,1.555,0,0,1-.339,1.319c-.2.189-.909.063-1.242-.153a2.2,2.2,0,0,0-2.755-.055c-.351.245-1.138.405-1.329.212a2.441,2.441,0,0,1-.334-1.429A6.953,6.953,0,0,1-132.183-659.565Zm1.9.222h1.693l.626-1.667-1.457-1.032-1.434,1.035Z" transform="translate(-4.471 -4.425)" fill="#fff"/>
    <path id="Path_772" data-name="Path 772" d="M-18.487-656.769H-20.1v-9.467h1.612Z" transform="translate(-71.763 -3.847)" fill="#fff"/>
    <path id="Path_773" data-name="Path 773" d="M-26.4-662h1.588v7.725H-26.4Z" transform="translate(-68.035 -6.35)" fill="#fff"/>
    <path id="Path_774" data-name="Path 774" d="M-32.815-657.73H-31.2v5.992h-1.611Z" transform="translate(-64.244 -8.877)" fill="#fff"/>
    <path id="Path_775" data-name="Path 775" d="M-37.625-649.222h-1.609v-4.255h1.609Z" transform="translate(-60.448 -11.392)" fill="#fff"/>
    <path id="Path_776" data-name="Path 776" d="M-128.13-614.442l-2.39-3.32c1.1-.1,1.845-.438,2.384.492.1.17.626.241.86.14a.939.939,0,0,0,.494-.728,1.423,1.423,0,0,0-.568-.811c-.17-.134-.491-.059-.735-.118a2.563,2.563,0,0,1-2.052-2.008,2.585,2.585,0,0,1,.944-2.612,12.185,12.185,0,0,0,1.107-1.376h1.062l2.344,3.32c-1.083.1-1.831.438-2.371-.49-.1-.171-.625-.244-.859-.143a.937.937,0,0,0-.5.727,1.425,1.425,0,0,0,.568.812c.17.134.491.06.735.119a2.561,2.561,0,0,1,2.051,2.008A2.587,2.587,0,0,1-126-615.82a12.01,12.01,0,0,0-1.105,1.377Z" transform="translate(-6.465 -28.36)" fill="#fff"/>
  </g>
</svg>
