<svg xmlns="http://www.w3.org/2000/svg"  viewBox="0 0 54.412 55.197">
  <g id="Group_8156" data-name="Group 8156" transform="translate(-461.458 604.01)">
    <path id="Path_727" data-name="Path 727" d="M469.4-559.76c-2.1,0-4.015-.036-5.927.013-1.27.033-1.771-.508-1.762-1.763.031-4.685.011-9.37.015-14.054,0-.294-.072-.707.087-.862,1.294-1.261.477-2.666.277-3.986-.79-5.234-.169-10.431.356-15.627.14-1.388.77-1.708,2.7-1.821.546-2.893,1.12-3.387,3.582-3.019.177-1.435.568-2.768,2.337-2.874,1.583-.095,2.244.96,2.588,2.295,2.5-.442,3.448.335,3.453,2.8.008,3.5,0,7,0,10.5v1.581l4.661-3.849a9.432,9.432,0,0,0-.938-1.9,2.24,2.24,0,0,1,.194-3.292c.48-.5.96-.995,1.473-1.456,1.639-1.475,2.1-1.5,3.973-.238a3.635,3.635,0,0,0,5.734-2.32c.428-2.042.863-2.428,2.968-2.486.786-.022,1.575.063,2.361.105a2.15,2.15,0,0,1,2.193,2.122c.541,3.357,3.257,4.49,6.1,2.577a2.168,2.168,0,0,1,2.955.127,22.117,22.117,0,0,1,1.581,1.554c1.574,1.722,1.595,2.132.294,4.077a3.61,3.61,0,0,0,2.391,5.691c1.975.415,2.374.863,2.449,2.858.026.688-.032,1.379-.052,2.068a2.439,2.439,0,0,1-2.373,2.646,12.564,12.564,0,0,0-3.044,1.4,8.912,8.912,0,0,0,.561.784c4.861,4.961,6.359,10.779,3.732,17.227s-7.78,9.673-14.7,9.76c-9.471.119-18.945.017-28.416.045-1.348,0-1.841-.545-1.817-1.862C469.434-553.791,469.4-556.648,469.4-559.76Zm15.9-4.968a14.6,14.6,0,0,0,14.545,14.636,14.689,14.689,0,0,0,14.734-14.638,14.718,14.718,0,0,0-14.588-14.649A14.625,14.625,0,0,0,485.295-564.728Zm2.02-12.727c-2.128-4.493-1.818-8.686,1.942-12.128a8.848,8.848,0,0,1,10.326-1.544c4.883,2.324,6.444,6.466,5.5,11.54l4.053,2.159c1.248-.674,2.223-1.569,3.289-1.7,1.818-.216,2.161-1.18,2.087-2.673-.025-.492-.029-.985-.024-1.478a1.4,1.4,0,0,0-1.326-1.588c-3.958-.827-5.333-4.315-3.006-7.576a1.426,1.426,0,0,0-.1-2.089c-.477-.5-.973-.981-1.425-1.5-.824-.951-1.56-.988-2.657-.227a4.447,4.447,0,0,1-7.07-2.906c-.273-1.642-1.032-2.037-2.443-1.957a13.822,13.822,0,0,1-1.478,0c-1.133-.059-1.616.439-1.843,1.588a4.57,4.57,0,0,1-7.4,2.892c-.348-.243-.959-.653-1.122-.535a17.49,17.49,0,0,0-3.183,2.724c-.256.3.323,1.335.557,2.02a6.953,6.953,0,0,1,.515,1.214c.108.862.549,1.165,1.373,1.362,1.511.362,1.722,1.214.724,2.492-1.153,1.477-2.383,2.9-3.476,4.416a29.254,29.254,0,0,0-1.657,2.849C481.467-576.864,484.326-577.091,487.315-577.455Zm-14.025-11-.492-.006a11.485,11.485,0,0,1-.187-1.449q-.024-5.475-.007-10.951c0-1.034-.2-1.963-1.474-1.921-1.2.039-1.321.979-1.322,1.923,0,3.6.008,7.2-.014,10.8a10.57,10.57,0,0,1-.237,1.565h-.493a9.538,9.538,0,0,1-.229-1.449q-.034-4.069-.007-8.138c0-.937-.021-1.935-1.234-1.956s-1.294.958-1.291,1.907c.01,2.861.016,5.722-.009,8.583a10.442,10.442,0,0,1-.246,1.568l-.481-.011a8.929,8.929,0,0,1-.25-1.431c-.029-1.972.054-3.949-.059-5.917-.03-.522-.611-1.013-.939-1.518-.331.466-.906.908-.952,1.4-.3,3.189-.659,6.389-.651,9.585.007,2.828.467,5.654.732,8.537,4.154,0,7.953-.086,11.744.042a2.486,2.486,0,0,0,2.779-1.78,25.777,25.777,0,0,1,4.809-7.57c.526-.621.994-1.292,1.578-2.057-4.035-1.5-5.089,2.6-7.849,3.874a15.726,15.726,0,0,1-.322-2.125c-.028-3.9-.022-7.793-.009-11.69,0-1-.068-2.043-1.349-2.016s-1.307,1.084-1.3,2.074q.02,4.366-.006,8.731A8.762,8.762,0,0,1,473.29-588.456Zm30.622,8.611a3.636,3.636,0,0,0,.276-.554A8.767,8.767,0,0,0,500-589.866a8.689,8.689,0,0,0-10.272,1.11A8.657,8.657,0,0,0,487.9-578.59a2.068,2.068,0,0,0,3.122,1.012A16.077,16.077,0,0,1,503.912-579.844ZM470.45-565.668v15.48h23.306c-2.073-2.008-4.64-2.049-7.3-1.96-3,.1-6.013.015-9.02.026-1.441.005-3.017.35-3.409-1.744-.047-.252-.518-.412-.762-.646s-.645-.528-.609-.731c.392-2.2-1.325-4.854,1.361-6.577a.585.585,0,0,0,.218-.378c.19-1.483,1.219-1.51,2.388-1.486,2.539.049,5.08.015,7.6.015v-2Zm16.241-7.46c-.243-.125-.328-.207-.413-.207q-8.884-.018-17.768-.018c-.237,0-.654.042-.685.151-.432,1.531-2.343,2.224-2.064,4.277.213,1.563.3,2.895,1.5,4.154.663.7.976,1.346,2.082.878.016-.2.044-.441.053-.679.07-1.968.194-2.091,2.144-2.1,1.083,0,2.165,0,3.364,0-.713-1.566-.793-2.988.593-4.095a2.59,2.59,0,0,1,3.176-.2c1.685,1.049,1.6,2.6.943,4.3,1.385,0,2.618-.035,3.848.011,1.124.043,1.186-.5.932-1.312l-2.467-.336c.457-.4.655-.7.778-.667,2.134.5,2.62-1.022,3.171-2.512A16.99,16.99,0,0,1,486.692-573.128Zm2.617-3.182H462.837V-560.8h6.446v-2.068c-2.833.952-2.595-2.3-4.3-2.9.441-2.2-1.376-4.826,1.272-6.609a.984.984,0,0,0,.365-.626c.157-1.275,1.016-1.347,2.044-1.343,5.725.026,11.454-.093,17.175.075C487.584-574.219,488.345-575.069,489.308-576.309Zm-5,13.61c-2.727,0-5.48,0-8.235.005-.191,0-.533.039-.551.118-.348,1.526-2.516,2.137-2.018,4.113a11.869,11.869,0,0,1,.039,2.063,2.045,2.045,0,0,0,.3,1.058c.57.751,1.224,1.439,1.853,2.16h13.67c-.5-.543-.874-.934-1.232-1.339-.382-.432-.75-.878-1.107-1.3-2.075,1.171-3.694.91-4.591-.664-.923-1.622-.275-2.9,2.317-4.546-.084-.375-.164-.76-.258-1.141C484.46-562.314,484.4-562.447,484.3-562.7Zm-7.164-3.973a1.935,1.935,0,0,0,1.973-1.939,1.95,1.95,0,0,0-1.954-1.811,1.9,1.9,0,0,0-1.8,1.953A1.814,1.814,0,0,0,477.141-566.672Zm9.162,9.956a.791.791,0,0,0,0-.291c-.3-.673-.664-1.32-.9-2.013-.314-.934-.883-.778-1.49-.422a1.829,1.829,0,0,0-.5,2.7C484.138-555.79,485.175-555.782,486.3-556.716Zm-7.336-22.143-.745,1.406h2.663Z" fill="#fff" stroke="#fff" stroke-width="0.5"/>
    <path id="Path_728" data-name="Path 728" d="M516.326-555.661c2.7,2.805,2.954,5.885.736,8.173-2.248,2.32-5.388,2.115-8.287-.606-.351.308-.706.628-1.071.938a5.188,5.188,0,0,1-7.105-.262,5.006,5.006,0,0,1-.24-6.965c2.838-3.014,5.777-5.937,8.783-8.785a5.009,5.009,0,0,1,6.643-.087,5.159,5.159,0,0,1,1.23,6.548C516.824-556.364,516.583-556.049,516.326-555.661Zm-11.417-2.244-3.182,3.416c-.235.252-.493.486-.707.755a4.257,4.257,0,0,0,.836,6.134,4.473,4.473,0,0,0,6.157-1.2,1.425,1.425,0,0,0,.175-.682c.042-1.569.063-3.139.1-5.042Zm4.462,3a5.265,5.265,0,0,1,5.105-1.427,1.279,1.279,0,0,0,1.65-.756,4.208,4.208,0,0,0-.651-5.168,3.966,3.966,0,0,0-5.148-.574,62.377,62.377,0,0,0-4.606,4.3Zm3.86-.625a4.352,4.352,0,0,0-4.371,4.278,4.345,4.345,0,0,0,4.4,4.394,4.346,4.346,0,0,0,4.37-4.276A4.347,4.347,0,0,0,513.231-555.532Z" transform="translate(-9.211 -9.688)" fill="#fff" stroke="#fff" stroke-width="0.5"/>
    <path id="Path_729" data-name="Path 729" d="M474.849-556.9H471.4A2.365,2.365,0,0,1,474.849-556.9Z" transform="translate(-2.39 -11.372)" fill="#fff" stroke="#fff" stroke-width="0.5"/>
    <path id="Path_730" data-name="Path 730" d="M485.089-542.695H481.78C482.372-543.755,483.875-543.838,485.089-542.695Z" transform="translate(-4.95 -14.854)" fill="#fff" stroke="#fff" stroke-width="0.5"/>
    <path id="Path_731" data-name="Path 731" d="M519.608-549.885c-1.112,1.975-2.911,3.32-4.582,5.069C514.832-546.107,517.961-549.512,519.608-549.885Z" transform="translate(-13.146 -13.285)" fill="#fff" stroke="#fff" stroke-width="0.5"/>
  </g>
</svg>
