<svg xmlns="http://www.w3.org/2000/svg" width="58.4" height="58.426" viewBox="0 0 58.4 58.426">
  <g id="Group_8160" data-name="Group 8160" transform="translate(-322.29 307.172)">
    <path id="Path_732" data-name="Path 732" d="M366.746-264.709l-1.795,1.976,1.638,1.815-1.223,1.161-5.142-5.461a51.026,51.026,0,0,1-6.373,2.085,15.121,15.121,0,0,1-16.394-8.426,2.465,2.465,0,0,0-1.487-1.371,4.782,4.782,0,0,1-3.241-4.535,4.78,4.78,0,0,1,2.785-4.722,2.56,2.56,0,0,0,1.434-1.578c.309-.887.764-1.723,1.246-2.781-1.062,0-2.028.014-2.992,0-1.868-.033-2.831-.948-2.87-2.781q-.051-2.334,0-4.673a2.563,2.563,0,0,1,2.756-2.8c1.6-.041,3.193-.045,4.788,0a2.553,2.553,0,0,1,2.7,2.736c.033.939.005,1.879.005,2.957,1.145-.547,2.14-.983,3.09-1.5.248-.137.391-.521.515-.819a5.058,5.058,0,0,1,4.719-3.359,5.16,5.16,0,0,1,4.856,3.16,1.934,1.934,0,0,0,.874.9c9.448,3.986,12.8,14.016,7.6,22.822a2.2,2.2,0,0,1-.363.478,6.6,6.6,0,0,1,1.048.668q5.5,5.128,10.984,10.283a3.321,3.321,0,0,1,1.122,3.386,3.308,3.308,0,0,1-2.495,2.551,3.179,3.179,0,0,1-3.241-.89c-.8-.8-1.562-1.659-2.429-2.587l1.184-1.215c.83.878,1.539,1.651,2.276,2.4a1.734,1.734,0,0,0,2.607.153,1.718,1.718,0,0,0-.2-2.525C372.12-259.687,369.479-262.146,366.746-264.709Zm-29.1-13.58a13.681,13.681,0,0,0,13.649,13.729,13.746,13.746,0,0,0,13.7-13.717,13.676,13.676,0,0,0-13.63-13.633A13.587,13.587,0,0,0,337.644-278.289Zm-3.6-13.43c0,.757.019,1.514-.005,2.27-.027.876.393,1.231,1.242,1.218,1.21-.02,2.421.007,3.631-.008a2.234,2.234,0,0,0,1.961-1.936c.023-1.247-.005-2.5.009-3.745.009-.811-.366-1.168-1.174-1.157-1.476.02-2.953.026-4.428,0-.852-.016-1.273.322-1.242,1.2C334.06-293.158,334.04-292.437,334.04-291.719Zm29.154,23.681-1.812,1.54,2.156,2.282,2-1.615Zm-27.322-12.293c-1.982.931-1.913,4.685.251,5.491Zm17.913-13.217a3.055,3.055,0,0,0-2.866-1.508,2.967,2.967,0,0,0-2.668,1.508Z" transform="translate(3.551 3.665)" fill="#fff"/>
    <path id="Path_733" data-name="Path 733" d="M327.506-286.454c.8,0,1.593-.018,2.388,0a2.515,2.515,0,0,1,2.67,2.62q.051,2.5,0,5a2.528,2.528,0,0,1-2.574,2.62c-1.705.054-3.413.057-5.117,0a2.53,2.53,0,0,1-2.556-2.637q-.049-2.5,0-5a2.5,2.5,0,0,1,2.574-2.6C325.761-286.476,326.633-286.453,327.506-286.454Zm-.135,8.509c.8,0,1.592-.012,2.387,0,.7.014,1.082-.3,1.086-1q.014-2.387,0-4.775a.952.952,0,0,0-1.063-1.054c-1.554-.008-3.107-.005-4.661,0-.754,0-1.1.408-1.093,1.143,0,.8-.008,1.592,0,2.387C324.054-277.4,323.616-278,327.37-277.945Z" transform="translate(0.001 7.342)" fill="#fff"/>
    <path id="Path_734" data-name="Path 734" d="M353.162-301.969c0,.872.035,1.746-.011,2.614a2.461,2.461,0,0,1-2.467,2.465c-1.742.049-3.488.046-5.23,0a2.5,2.5,0,0,1-2.527-2.542q-.1-2.556,0-5.116a2.531,2.531,0,0,1,2.72-2.587c1.629-.023,3.259-.028,4.888,0a2.5,2.5,0,0,1,2.621,2.549C353.2-303.714,353.163-302.84,353.162-301.969Zm-8.516-.146c0,.759.03,1.518-.008,2.274-.043.874.341,1.258,1.2,1.25,1.478-.014,2.957-.007,4.436,0,.775,0,1.215-.31,1.207-1.146-.015-1.516-.012-3.033,0-4.55a.979.979,0,0,0-1.1-1.127q-2.332-.008-4.665,0c-.752,0-1.1.378-1.074,1.138C344.665-303.557,344.646-302.836,344.646-302.116Z" transform="translate(7.298 0.007)" fill="#fff"/>
    <path id="Path_735" data-name="Path 735" d="M322.308-301.111h1.6a4.713,4.713,0,0,1,.111.578c.122,1.946.121,1.946,2.122,1.948,1.177,0,2.355-.012,3.533,0,.8.008,1.189-.36,1.184-1.17-.011-1.52-.008-3.04,0-4.559,0-.764-.391-1.1-1.134-1.1-1.482,0-2.964.014-4.445-.007-.852-.011-1.283.345-1.247,1.22.016.41,0,.821,0,1.3h-1.555c-.7-2.769.652-4.474,3.264-4.253,1.359.115,2.735,0,4.1.026a2.553,2.553,0,0,1,2.728,2.7c.027,1.634.03,3.268,0,4.9a2.534,2.534,0,0,1-2.66,2.651c-1.518.03-3.039.012-4.559.007-2.085-.009-3.034-.977-3.038-3.084Z" transform="translate(0 0)" fill="#fff"/>
    <path id="Path_736" data-name="Path 736" d="M322.306-291.7a5.159,5.159,0,0,1,5.186-5.106,5.154,5.154,0,0,1,5.071,5.22,5.1,5.1,0,0,1-5.128,5.027A5.1,5.1,0,0,1,322.306-291.7Zm5.147-3.373a3.386,3.386,0,0,0-3.417,3.386,3.423,3.423,0,0,0,3.381,3.44,3.42,3.42,0,0,0,3.416-3.4A3.381,3.381,0,0,0,327.453-295.076Z" transform="translate(0.006 3.673)" fill="#fff"/>
    <path id="Path_737" data-name="Path 737" d="M342.852-302a5.115,5.115,0,0,1-5.148,5.121,5.179,5.179,0,0,1-5.105-5.083,5.175,5.175,0,0,1,5.123-5.177A5.114,5.114,0,0,1,342.852-302Zm-8.5-.061a3.368,3.368,0,0,0,3.342,3.453,3.431,3.431,0,0,0,3.474-3.35,3.421,3.421,0,0,0-3.371-3.449A3.358,3.358,0,0,0,334.351-302.063Z" transform="translate(3.654 0.011)" fill="#fff"/>
    <path id="Path_738" data-name="Path 738" d="M359.823-267.968l-1.069,1-1.146-1.231,1.279-1.222Z" transform="translate(12.521 13.384)" fill="#fff"/>
    <path id="Path_739" data-name="Path 739" d="M361.419-279.992a11.9,11.9,0,0,1-11.914,11.967,11.964,11.964,0,0,1-12.024-12,12.035,12.035,0,0,1,12-11.941A11.97,11.97,0,0,1,361.419-279.992Zm-11.9-10.224a10.17,10.17,0,0,0-10.289,10.122,10.25,10.25,0,0,0,10.175,10.388,10.327,10.327,0,0,0,10.328-10.273A10.256,10.256,0,0,0,349.524-290.216Z" transform="translate(5.385 5.39)" fill="#fff"/>
    <path id="Path_740" data-name="Path 740" d="M353.895-281.529c0,1.1.023,2.2-.005,3.3a2.545,2.545,0,0,1-2.64,2.67q-3.356.055-6.712,0a2.46,2.46,0,0,1-2.6-2.468c-.075-2.349-.075-4.7,0-7.05a2.4,2.4,0,0,1,2.5-2.431c2.312-.06,4.627-.065,6.939,0a2.487,2.487,0,0,1,2.5,2.678C353.915-283.73,353.895-282.629,353.895-281.529Zm-10.259-.022c0,1.024.022,2.049-.008,3.072-.022.811.328,1.2,1.138,1.2q3.129-.006,6.259,0c.734,0,1.141-.307,1.138-1.082-.005-2.124,0-4.248,0-6.372,0-.752-.367-1.09-1.13-1.084q-3.129.026-6.258,0c-.829-.007-1.158.391-1.142,1.191C343.652-283.6,343.636-282.575,343.636-281.551Z" transform="translate(6.947 6.954)" fill="#fff"/>
    <path id="Path_741" data-name="Path 741" d="M348.575-283.354h-1.57v-1.616h1.57Z" transform="translate(8.762 7.871)" fill="#fff"/>
    <path id="Path_742" data-name="Path 742" d="M347-282.448h1.579v1.6H347Z" transform="translate(8.761 8.765)" fill="#fff"/>
  </g>
</svg>
