<svg xmlns="http://www.w3.org/2000/svg" width="60.514" height="59.796" viewBox="0 0 60.514 59.796">
  <g id="Group_8161" data-name="Group 8161" transform="translate(-734.439 587.232)">
    <path id="Path_777" data-name="Path 777" d="M780.671-535.522c-3.617,0-7.235-.03-10.851.031a2.573,2.573,0,0,0-1.655.685,19.5,19.5,0,0,1-21.962,4.5,19.289,19.289,0,0,1-11.7-19.226c.7-8.246,5.029-14.131,12.81-16.968s14.785-1.012,20.7,4.8a2.435,2.435,0,0,0,1.886.813c7.112-.028,14.224-.017,21.336-.016,2.723,0,3.714,1.007,3.715,3.769q0,9.025,0,18.05c0,2.488-1.074,3.565-3.551,3.567Q786.035-535.517,780.671-535.522ZM775.4-558.946c-2.314,0-4.539-.024-6.763.012-.846.014-1.016.639-1.016,1.371q.011,9.331-.006,18.662c0,1.057.458,1.433,1.479,1.431q11.218-.028,22.436,0c1.129,0,1.5-.493,1.478-1.559-.04-2.276-.012-4.554-.012-6.83,0-3.863-.005-7.725,0-11.587,0-.753-.086-1.471-1.02-1.489-2.223-.042-4.447-.013-6.8-.013v5.762H775.4ZM759.115-556.9H748.783l-.75,7.64H759.9C759.633-551.865,759.375-554.379,759.115-556.9Zm.791,9.758H748l.812,7.631H759.11C759.376-542.066,759.635-544.554,759.906-547.144ZM746.831-557c-2.555,0-5.028-.017-7.5.023a1.152,1.152,0,0,0-.828.517,16.193,16.193,0,0,0-2.025,7.179h9.564Zm-.793,9.82h-9.565a16.541,16.541,0,0,0,2.033,7.227c.118.216.395.489.6.491,2.58.034,5.16.022,7.725.022C746.561-542.083,746.3-544.578,746.038-547.18ZM758.471-559a13.631,13.631,0,0,0-2.694-5.774c-1.14-1.3-2.31-1.372-3.446-.195A12.864,12.864,0,0,0,749.443-559Zm-9.031,21.563a13.653,13.653,0,0,0,2.711,5.791c1.114,1.257,2.245,1.352,3.358.246,1.655-1.646,2.353-3.775,2.969-6.036Zm16.133-11.8v-7.672h-4.487l.792,7.672Zm-3.7,2.061-.781,7.659h4.483v-7.659Zm-12.2-18.064a17.306,17.306,0,0,0-9.524,6.284c2.379,0,4.486.024,6.592-.029a1.157,1.157,0,0,0,.807-.638C748.28-561.46,748.951-563.32,749.669-565.243Zm-9.557,27.8a17.634,17.634,0,0,0,9.611,6.243l-2.515-6.243Zm26.524-22.909a17.151,17.151,0,0,0-8.459-4.908l2.539,6.3c1.1,0,2.321-.088,3.521.025A2.013,2.013,0,0,0,766.637-560.348Zm-8.469,29.19a17.513,17.513,0,0,0,8.653-5.134c-.571-.426-1.051-1.077-1.589-1.13-1.523-.149-3.069-.052-4.515-.052Zm19.241-23.971h5.738v-3.726h-5.738Z" transform="translate(0 -8.142)" fill="#fff"/>
    <path id="Path_778" data-name="Path 778" d="M809.057-580.767l-12.9,6.452v-2.531H769.833v-1.882h28.182l.15,1.216,6.5-3.249-6.488-3.258-.159,1.257H777.673v-1.891h18.445v-2.579Z" transform="translate(-14.844 0)" fill="#fff"/>
    <path id="Path_779" data-name="Path 779" d="M802.44-498.029v1.888H783.977v2.56l-12.943-6.464,12.917-6.464v2.524h26.255v1.909H782.054l-.14-1.223-6.5,3.25,6.49,3.251.136-1.23Z" transform="translate(-15.348 -33.855)" fill="#fff"/>
    <path id="Path_780" data-name="Path 780" d="M771.659-580.83h-1.766v-1.853h1.766Z" transform="translate(-14.869 -1.908)" fill="#fff"/>
    <path id="Path_781" data-name="Path 781" d="M778.383-580.83h-1.766v-1.853h1.766Z" transform="translate(-17.689 -1.908)" fill="#fff"/>
    <path id="Path_782" data-name="Path 782" d="M828.663-490.068v-1.805h1.826v1.805Z" transform="translate(-39.517 -39.993)" fill="#fff"/>
    <path id="Path_783" data-name="Path 783" d="M837.247-490.066h-1.8v-1.823h1.8Z" transform="translate(-42.362 -39.987)" fill="#fff"/>
    <path id="Path_784" data-name="Path 784" d="M815.2-527.1v-1.784h9.654v1.784Z" transform="translate(-33.869 -24.47)" fill="#fff"/>
    <path id="Path_785" data-name="Path 785" d="M815.223-522.207h1.817v1.839h-1.817Z" transform="translate(-33.881 -27.271)" fill="#fff"/>
    <path id="Path_786" data-name="Path 786" d="M821.957-522.2h1.805v1.827h-1.805Z" transform="translate(-36.705 -27.276)" fill="#fff"/>
    <path id="Path_787" data-name="Path 787" d="M828.666-520.336v-1.8h1.823v1.8Z" transform="translate(-39.519 -27.301)" fill="#fff"/>
    <path id="Path_788" data-name="Path 788" d="M764.86-542.43h1.766v1.853H764.86Z" transform="translate(-12.759 -18.79)" fill="#fff"/>
    <path id="Path_789" data-name="Path 789" d="M771.487-540.552v-1.789h1.852v1.789Z" transform="translate(-15.538 -18.827)" fill="#fff"/>
    <path id="Path_790" data-name="Path 790" d="M761.422-527.061v-1.805h1.827v1.805Z" transform="translate(-11.317 -24.478)" fill="#fff"/>
    <path id="Path_791" data-name="Path 791" d="M768.149-527.1v-1.817h1.809v1.817Z" transform="translate(-14.138 -24.458)" fill="#fff"/>
  </g>
</svg>
