<svg xmlns="http://www.w3.org/2000/svg" width="54.715" height="54.451" viewBox="0 0 54.715 54.451">
  <g id="Group_8152" data-name="Group 8152" transform="translate(-465.449 363)">
    <path id="Path_743" data-name="Path 743" d="M504.789-315.446c.469.5.82.844,1.13,1.218a2.65,2.65,0,0,1-1.084,4.281,1.358,1.358,0,0,0-1.015,1.012c-.309,1.15-1.671,1.267-2.255,1.98-.64.781-.9,1.846-2.027,2.234a1.36,1.36,0,0,0-.728.683c-.912,2.18-3,2.669-4.708,1.054a5.208,5.208,0,0,1-.593-.826c-.458.256-.706.419-.972.54a2.636,2.636,0,0,1-3.652-1.436,1.539,1.539,0,0,0-1.1-1.081c-1.083-.325-1.224-1.575-1.885-2.214-.64-.618-1.806-.773-2.15-1.8a1.536,1.536,0,0,0-1.062-1.122,2.676,2.676,0,0,1-1.727-2.979,1.9,1.9,0,0,0-.428-1.322c-1.8-1.883-3.648-3.725-5.518-5.541a1.18,1.18,0,0,1,0-1.993q4.2-4.136,8.339-8.332c.685-.692,1.347-.737,1.9.033a4.811,4.811,0,0,0,4.887,2.023,2.806,2.806,0,0,1,1.658.692,13.838,13.838,0,0,1,1.539,1.5,1.557,1.557,0,0,0,2.433.032c.607-.567,1.192-1.159,1.765-1.761a1.054,1.054,0,0,1,1.743-.031q4.276,4.3,8.573,8.579a1.057,1.057,0,0,1-.078,1.744C506.785-317.351,505.807-316.414,504.789-315.446Zm-11.454,6.637c-.885.833-1.753,1.568-2.5,2.407a1.5,1.5,0,0,0-.13,1.192.931.931,0,0,0,.828.318,2.3,2.3,0,0,0,.653-.979c.287-.674.313-1.671.8-2a20.434,20.434,0,0,0,2.656-2.615c.846-.815,1.656-1.642,2.479-2.469.9-.907,1.878-1.716,2.715-2.734.492-.6,1.629-.668,2.288-.907l-3.653-3.6a2.682,2.682,0,0,1-1.35,3.056c-1.21.646-2.418.362-3.657-.865-.752-.745-1.494-1.5-2.251-2.238-.184-.18-.462-.491-.606-.446a8.371,8.371,0,0,0-2.981,1.124c-1.886,1.621-3.565,3.483-5.332,5.244-.469.468-.817.976-.211,1.546.549.517,1.058.208,1.465-.254.716-.814,1.406-1.651,2.107-2.478l.235.366,1.4,1.125c-.9.829-1.672,1.538-2.437,2.257-.482.453-.863,1.052-.191,1.507a1.546,1.546,0,0,0,1.428-.233,22.427,22.427,0,0,0,1.971-2.165l1.664,1.22a27.326,27.326,0,0,0-2.306,2.3,1.561,1.561,0,0,0-.2,1.428c.4.581,1,.294,1.435-.171.737-.792,1.464-1.593,2.269-2.469Zm-6.2-13.878a2.966,2.966,0,0,0,3.865.005c.61-.487,1.106-.268,1.587.219,1.116,1.128,2.244,2.244,3.365,3.367.445.446.94.711,1.473.192.549-.534.25-1.021-.191-1.462-2.163-2.165-4.32-4.336-6.492-6.49-.565-.561-3.261-.625-3.824-.072-2.584,2.539-5.145,5.1-7.628,7.567l3.086,3.136,4.449-4.429-.885-.823Zm18.87,3.655-7.7-7.687-1.072.955,7.667,7.708ZM484.375-329.29l-7.609,7.619.976,1.091,7.733-7.726Zm14.386,22.866a.878.878,0,0,0,.675-1.414,7.488,7.488,0,0,0-1.532-1.493.826.826,0,0,0-1.306.669C496.557-308.044,498.143-306.4,498.761-306.424Zm-1.423,1.48c-.872-.716-1.655-1.4-2.5-2-.1-.072-.637.247-.758.49a1.029,1.029,0,0,0,.1.907,7.534,7.534,0,0,0,1.424,1.424,1.323,1.323,0,0,0,1.023.086C496.844-304.1,496.975-304.46,497.338-304.944Zm5.052-5.185c-.78-.642-1.543-1.306-2.359-1.9-.1-.074-.6.182-.713.392a1.047,1.047,0,0,0-.014.916,8.076,8.076,0,0,0,1.5,1.532C501.388-308.74,502.191-309.189,502.39-310.13Zm2.576-2.58a13.832,13.832,0,0,0-2.376-1.839c-.593-.289-1.166.684-.724,1.283a7.364,7.364,0,0,0,1.514,1.514C503.981-311.306,504.767-311.753,504.966-312.71Z" transform="translate(-5.311 -18.484)" fill="#fff"/>
    <path id="Path_744" data-name="Path 744" d="M507.12-334.877h-1.7v-19.03c-1.464,0-2.81.005-4.155,0-2.095-.01-3.143-1.046-3.155-3.12-.007-1.32,0-2.641,0-4.136h-1.236q-13.153,0-26.305,0c-2.31,0-3.3.994-3.3,3.319q0,22.054,0,44.107c0,2.4.962,3.367,3.362,3.367q15.7,0,31.408,0c2.331,0,3.318-.982,3.324-3.292,0-.976,0-1.952,0-2.991h1.78a38.993,38.993,0,0,1-.027,4.2c-.26,2.359-2.22,3.894-4.794,3.9q-15.024.01-30.048,0c-.642,0-1.285,0-1.927,0a4.558,4.558,0,0,1-4.894-4.878q-.013-11.169,0-22.337,0-11.055,0-22.11c0-3.3,1.809-5.1,5.119-5.106,9.222,0,18.444.009,27.666-.018a2.52,2.52,0,0,1,1.986.829c2.081,2.14,4.226,4.219,6.3,6.363a2.2,2.2,0,0,1,.629,1.352c.04,6.349.027,12.7.023,19.048C507.179-335.263,507.148-335.119,507.12-334.877Zm-3.627-20.85-3.565-3.576c0,.643,0,1.544,0,2.445,0,.817.431,1.147,1.211,1.135C502.006-355.737,502.873-355.727,503.493-355.727Z" transform="translate(0 0)" fill="#fff"/>
    <path id="Path_745" data-name="Path 745" d="M559.669-301.823a4.459,4.459,0,0,1-1.415,3.348c-5.2,5.208-10.393,10.429-15.641,15.592a3.751,3.751,0,0,1-2.026.817,4.523,4.523,0,0,0-2.893,1.549,4.579,4.579,0,0,1-1.616,1.182A2.616,2.616,0,0,1,533-280.392a2.525,2.525,0,0,1,.148-3.152,6.946,6.946,0,0,0,2.511-4.848,1.577,1.577,0,0,1,.525-.84q7.877-7.9,15.782-15.771a4.288,4.288,0,0,1,5.019-.921A4.3,4.3,0,0,1,559.669-301.823Zm-9.228,3.233-.888-1.149-10.8,10.816.877,1.143Zm1.65,1.406-10.84,10.862.921.909,10.8-10.809Zm4.484-2.249a2.751,2.751,0,0,0,1.182-3.089,2.469,2.469,0,0,0-2.031-1.911,2.748,2.748,0,0,0-2.965,1.274Zm-19.227,12.261c-.617,1.675-.575,1.772.993,3.2.846.773,1.563.059,2.2.015Zm-1.483,3.31a8.042,8.042,0,0,0-1.2,1.353,1.251,1.251,0,0,0,.019,1.16,1.239,1.239,0,0,0,1.159.057,8.327,8.327,0,0,0,1.408-1.239Zm14.91-17.368,3.744,3.852.542-.572-3.741-3.766Z" transform="translate(-39.506 -33.366)" fill="#fff"/>
    <path id="Path_746" data-name="Path 746" d="M478.839-340.768h8.938v1.7h-8.938Z" transform="translate(-7.887 -13.096)" fill="#fff"/>
    <path id="Path_747" data-name="Path 747" d="M478.818-259.594v-1.682H487.8v1.682Z" transform="translate(-7.875 -59.92)" fill="#fff"/>
    <path id="Path_748" data-name="Path 748" d="M507.5-246.306V-248h8.966v1.691Z" transform="translate(-24.77 -67.742)" fill="#fff"/>
    <path id="Path_749" data-name="Path 749" d="M478.888-270.122h7.127v1.682h-7.127Z" transform="translate(-7.916 -54.709)" fill="#fff"/>
    <path id="Path_750" data-name="Path 750" d="M493-349.52v1.678h-5.349v-1.678Z" transform="translate(-13.079 -7.94)" fill="#fff"/>
    <path id="Path_751" data-name="Path 751" d="M484.237-278.918v1.668h-5.349v-1.668Z" transform="translate(-7.916 -49.528)" fill="#fff"/>
    <path id="Path_752" data-name="Path 752" d="M478.793-347.886v-1.662h1.722v1.662Z" transform="translate(-7.86 -7.924)" fill="#fff"/>
  </g>
</svg>
