<svg xmlns="http://www.w3.org/2000/svg" width="60.322" height="60.561" viewBox="0 0 60.322 60.561">
  <g id="Group_8153" data-name="Group 8153" transform="translate(14.499 310.55)">
    <path id="Path_753" data-name="Path 753" d="M35.006-278.578a28.185,28.185,0,0,0-.3-3.756,5.632,5.632,0,0,0-5.4-4.491c-3.511-.089-5.515-2.59-4.987-6.6a2.2,2.2,0,0,1,.6-.985,11.844,11.844,0,0,0,2.893-7.572c.124-4.318-2.871-6.825-7.137-6.058a5.159,5.159,0,0,0-4.648,5.369,11.825,11.825,0,0,0,2.536,7.817,4.966,4.966,0,0,1-2.762,7.894,7.149,7.149,0,0,1-1.172.115,5.922,5.922,0,0,0-5.706,5.928c-.014.739,0,1.479,0,2.342h6.566c.354,0,.71-.013,1.063.008a1.105,1.105,0,0,1,1.186,1.19,1.094,1.094,0,0,1-1.214,1.161c-2.915.015-5.832.053-8.745-.048a1.672,1.672,0,0,1-1.163-1.146,23.845,23.845,0,0,1,.159-5.176,8.04,8.04,0,0,1,7.707-6.613,2.439,2.439,0,0,0,2.478-1.446,2.79,2.79,0,0,0-.4-2.955,13.971,13.971,0,0,1-2.89-9.4c.256-5.072,4.476-8.261,9.734-7.41,4.7.761,7.246,4.247,6.748,9.319a14.221,14.221,0,0,1-3.015,7.7,2.576,2.576,0,0,0-.244,2.764A2.364,2.364,0,0,0,29.03-289.2a12.2,12.2,0,0,1,3.312.723,7.961,7.961,0,0,1,4.941,7.309c.063,1.139,0,2.285.016,3.428.015,1.02-.444,1.54-1.486,1.537q-4.138-.012-8.274,0c-.82,0-1.431-.292-1.426-1.193s.622-1.182,1.439-1.18C29.951-278.574,32.352-278.578,35.006-278.578Z" transform="translate(-6.265 0)" fill="#fff"/>
    <path id="Path_754" data-name="Path 754" d="M46.476-244.173c.2-1.144.4-2.508.688-3.852a1.983,1.983,0,0,0-.673-2.18,31.7,31.7,0,0,1-2.867-2.807,1.658,1.658,0,0,1-.478-1.307,1.821,1.821,0,0,1,1.193-.9c1.46-.308,2.958-.431,4.42-.727a1.851,1.851,0,0,0,1.1-.808c.663-1.158,1.16-2.412,1.834-3.563.3-.52.868-1.21,1.33-1.223s1.056.662,1.357,1.174c.695,1.184,1.208,2.473,1.88,3.672a1.694,1.694,0,0,0,1.028.738c1.465.289,2.961.421,4.421.726a1.8,1.8,0,0,1,1.228.855,1.812,1.812,0,0,1-.5,1.413,35.578,35.578,0,0,1-2.956,2.884,1.7,1.7,0,0,0-.566,1.87,36.376,36.376,0,0,1,.674,4.071,1.818,1.818,0,0,1-.487,1.4,1.64,1.64,0,0,1-1.387-.033,35.916,35.916,0,0,1-3.655-1.913,1.767,1.767,0,0,0-2.052.027c-1.183.7-2.418,1.315-3.651,1.923C47.189-242.151,46.394-242.685,46.476-244.173Zm10.439-1.67c-.192-1.2-.285-2.177-.521-3.12a1.878,1.878,0,0,1,.711-2.079c.734-.62,1.442-1.269,2.162-1.9a12.41,12.41,0,0,0-3.119-.716,1.915,1.915,0,0,1-1.693-1.25c-.393-.918-.886-1.793-1.409-2.831a23.33,23.33,0,0,0-1.179,2.406,2.471,2.471,0,0,1-2.488,1.763c-.788.039-1.569.223-2.645.387.915.87,1.573,1.545,2.283,2.159a1.962,1.962,0,0,1,.675,2.2c-.234.89-.3,1.825-.473,2.975a25.013,25.013,0,0,1,2.913-1.486,2.95,2.95,0,0,1,1.855,0A25.454,25.454,0,0,1,56.914-245.843Z" transform="translate(-17.145 -14.585)" fill="#fff"/>
    <path id="Path_755" data-name="Path 755" d="M-11.225-243.824c.263-1.511.5-3.027.8-4.53a1.565,1.565,0,0,0-.524-1.666,42.39,42.39,0,0,1-3.039-2.968,1.78,1.78,0,0,1-.483-1.413,1.818,1.818,0,0,1,1.241-.837c1.422-.3,2.883-.41,4.3-.714a2.008,2.008,0,0,0,1.181-.879c.716-1.263,1.263-2.623,1.984-3.883a1.832,1.832,0,0,1,1.226-.861c.358-.022.888.454,1.106.843.729,1.3,1.312,2.686,2.043,3.987a1.843,1.843,0,0,0,1.11.787c1.384.287,2.8.4,4.186.7.511.11,1.267.466,1.35.835a2.172,2.172,0,0,1-.609,1.582c-.885,1-1.95,1.84-2.823,2.848A2.411,2.411,0,0,0,1.3-248.37c.129,1.406.5,2.789.645,4.193a1.772,1.772,0,0,1-.458,1.419,1.817,1.817,0,0,1-1.493-.063c-1.321-.6-2.565-1.376-3.884-1.982a1.858,1.858,0,0,0-1.384.006c-1.39.643-2.716,1.424-4.092,2.1A1.2,1.2,0,0,1-11.225-243.824Zm.455-9.41c.823.843,1.45,1.547,2.144,2.178a1.949,1.949,0,0,1,.7,2.09c-.231.956-.322,1.946-.5,3.1,1.035-.535,1.9-.917,2.7-1.41a1.99,1.99,0,0,1,2.306,0c.794.483,1.651.864,2.677,1.392a29.548,29.548,0,0,0-.475-2.961,1.938,1.938,0,0,1,.69-2.2c.731-.617,1.423-1.279,2.133-1.922a12.273,12.273,0,0,0-3.1-.706,1.921,1.921,0,0,1-1.689-1.255c-.393-.905-.872-1.774-1.4-2.827-.541,1.08-1.023,1.936-1.4,2.835a1.909,1.909,0,0,1-1.694,1.248C-8.651-253.56-9.61-253.4-10.77-253.233Z" transform="translate(0 -14.573)" fill="#fff"/>
    <path id="Path_756" data-name="Path 756" d="M17.622-233.761c.245-1.473.433-3,.775-4.493a1.587,1.587,0,0,0-.6-1.729c-1.016-.929-2.023-1.877-2.942-2.9a1.8,1.8,0,0,1-.477-1.418,1.794,1.794,0,0,1,1.227-.837c1.422-.3,2.883-.409,4.3-.712a2.015,2.015,0,0,0,1.189-.879c.716-1.264,1.262-2.624,1.982-3.885a1.821,1.821,0,0,1,1.22-.859c.36-.021.889.457,1.108.845.695,1.231,1.307,2.512,1.894,3.8a1.51,1.51,0,0,0,1.373,1.043,39.919,39.919,0,0,1,4.313.655,1.664,1.664,0,0,1,1.125.818,1.632,1.632,0,0,1-.391,1.338c-1.037,1.129-2.2,2.142-3.248,3.263A1.68,1.68,0,0,0,30.1-238.5c.181,1.442.529,2.864.683,4.309a2,2,0,0,1-.468,1.534,1.753,1.753,0,0,1-1.484-.054c-1.321-.6-2.565-1.376-3.884-1.983a1.865,1.865,0,0,0-1.389,0c-1.39.642-2.715,1.425-4.092,2.1A1.177,1.177,0,0,1,17.622-233.761Zm12.95-9.361c-1.244-.173-2.13-.32-3.022-.414a2.114,2.114,0,0,1-1.965-1.413c-.336-.86-.82-1.662-1.345-2.7-.513,1.021-.993,1.823-1.328,2.68a2.112,2.112,0,0,1-1.953,1.431c-.917.095-1.828.256-3.054.433.807.757,1.36,1.369,2,1.859a2.46,2.46,0,0,1,.906,2.912,23.7,23.7,0,0,0-.4,2.552c1.067-.549,1.926-.933,2.724-1.418a1.919,1.919,0,0,1,2.2-.015c.824.495,1.708.889,2.758,1.425-.168-1.037-.244-1.857-.443-2.647a2.356,2.356,0,0,1,.834-2.717C29.159-241.675,29.735-242.322,30.572-243.121Z" transform="translate(-8.584 -17.58)" fill="#fff"/>
    <path id="Path_757" data-name="Path 757" d="M29.313-263.486c-.473.281-1,.846-1.406.766a1.668,1.668,0,0,1-1.019-1.215c-.03-.31.714-.975,1.113-.976.445,0,.891.569,1.337.891Z" transform="translate(-12.316 -13.581)" fill="#fff"/>
  </g>
</svg>
