<svg xmlns="http://www.w3.org/2000/svg" xmlns:xlink="http://www.w3.org/1999/xlink" width="124.01" height="124.033" viewBox="0 0 124.01 124.033">
  <defs>
    <linearGradient id="linear-gradient" x1="0.348" y1="0.111" x2="0.774" y2="0.945" gradientUnits="objectBoundingBox">
      <stop offset="0" stop-color="#17befb"/>
      <stop offset="1" stop-color="#d607d8"/>
    </linearGradient>
  </defs>
  <path id="if_space_saturn_planet_182364" d="M123.9,18.2c-.512,5.989-2.745,13.1-6.47,20.848l.012.023c-6.7,13.928-18.227,29.884-33.35,45-15.134,15.138-31.109,26.67-45.049,33.369-.008,0-.016,0-.023-.008-7.745,3.718-14.859,5.947-20.844,6.451-.047,0-.085,0-.132.008-5.943.477-10.765-.756-13.959-3.95-7.16-7.16-4.516-22.5,5.322-40.4A57.959,57.959,0,0,1,79.52,9.413C97.441-.445,112.8-3.1,119.963,4.064c3.186,3.183,4.415,7.993,3.95,13.921A1.968,1.968,0,0,0,123.9,18.2ZM12.883,89.723c-.124.271-.279.554-.4.822-6.14,13.7-5.427,21.449-2.958,23.922,1.2,1.2,3.272,1.81,6.152,1.81,4.346,0,9.653-1.361,15.522-3.8A58.272,58.272,0,0,1,12.883,89.723ZM114.436,9.557c-1.5-1.5-4.171-1.806-6.152-1.806-5.086,0-11.486,1.857-18.568,5.14a58.245,58.245,0,0,1,22.716,18.262C117.451,18.942,116.761,11.883,114.436,9.557ZM50.729,120.041c12.959-7.493,26.383-18.03,38.831-30.477,13.242-13.242,24.232-27.512,31.706-41.025a57.82,57.82,0,0,1-72.789,72.712C49.229,120.832,49.961,120.483,50.729,120.041Z" transform="translate(-0.024 -0.005)" fill-rule="evenodd" opacity="0.21" fill="url(#linear-gradient)"/>
</svg>
