<svg xmlns="http://www.w3.org/2000/svg" width="16.909" height="16.909" viewBox="0 0 16.909 16.909">
  <g id="Group_3907" data-name="Group 3907" transform="translate(-9.385 -9.385)">
    <g id="Icon_feather-instagram" data-name="Icon feather-instagram" transform="translate(10.385 10.385)">
      <path id="Path_1" data-name="Path 1" d="M6.727,3h7.455a3.727,3.727,0,0,1,3.727,3.727v7.455a3.727,3.727,0,0,1-3.727,3.727H6.727A3.727,3.727,0,0,1,3,14.182V6.727A3.727,3.727,0,0,1,6.727,3Z" transform="translate(-3 -3)" fill="none" stroke="#e4e4e4" stroke-linecap="round" stroke-linejoin="round" stroke-width="2"/>
      <path id="Path_2" data-name="Path 2" d="M18,14.479a2.982,2.982,0,1,1-2.512-2.512A2.982,2.982,0,0,1,18,14.479Z" transform="translate(-7.56 -7.494)" fill="none" stroke="#e4e4e4" stroke-linecap="round" stroke-linejoin="round" stroke-width="2"/>
      <path id="Path_3" data-name="Path 3" d="M26.25,9.75h0" transform="translate(-14.695 -6.395)" fill="none" stroke="#e4e4e4" stroke-linecap="round" stroke-linejoin="round" stroke-width="2"/>
    </g>
  </g>
</svg>
