<svg xmlns="http://www.w3.org/2000/svg" width="14.909" height="14.909" viewBox="0 0 14.909 14.909">
  <g id="Group_3906" data-name="Group 3906" transform="translate(-10.385 -10.385)">
    <path id="Icon_awesome-linkedin-in" data-name="Icon awesome-linkedin-in" d="M3.337,14.909H.246V4.956H3.337ZM1.79,3.6A1.8,1.8,0,1,1,3.58,1.791,1.805,1.805,0,0,1,1.79,3.6ZM14.906,14.909H11.821V10.064c0-1.155-.023-2.636-1.607-2.636-1.607,0-1.853,1.255-1.853,2.553v4.929H5.273V4.956H8.238V6.313h.043a3.248,3.248,0,0,1,2.925-1.607c3.128,0,3.7,2.06,3.7,4.736v5.468Z" transform="translate(10.385 10.384)" fill="#fff"/>
  </g>
</svg>
