<svg xmlns="http://www.w3.org/2000/svg" width="14.909" height="12.109" viewBox="0 0 14.909 12.109">
  <g id="Group_3908" data-name="Group 3908" transform="translate(-10.385 -11.769)">
    <path id="Icon_awesome-twitter" data-name="Icon awesome-twitter" d="M13.377,6.4c.009.132.009.265.009.4A8.634,8.634,0,0,1,4.692,15.49,8.635,8.635,0,0,1,0,14.118a6.321,6.321,0,0,0,.738.038A6.119,6.119,0,0,0,4.531,12.85a3.061,3.061,0,0,1-2.857-2.119,3.853,3.853,0,0,0,.577.047,3.232,3.232,0,0,0,.8-.1,3.056,3.056,0,0,1-2.45-3V7.638a3.077,3.077,0,0,0,1.381.388,3.06,3.06,0,0,1-.946-4.087,8.685,8.685,0,0,0,6.3,3.2,3.449,3.449,0,0,1-.076-.7,3.059,3.059,0,0,1,5.288-2.091,6.016,6.016,0,0,0,1.939-.738A3.047,3.047,0,0,1,13.15,5.292a6.126,6.126,0,0,0,1.76-.473A6.568,6.568,0,0,1,13.377,6.4Z" transform="translate(10.385 8.388)" fill="#fff"/>
  </g>
</svg>
