<svg xmlns="http://www.w3.org/2000/svg" width="16.102" height="11.322" viewBox="0 0 16.102 11.322">
  <g id="Group_3905" data-name="Group 3905" transform="translate(-9.692 -12.461)">
    <path id="Icon_awesome-youtube" data-name="Icon awesome-youtube" d="M16.815,6.271a2.023,2.023,0,0,0-1.424-1.433A47.813,47.813,0,0,0,9.1,4.5a47.813,47.813,0,0,0-6.291.339A2.023,2.023,0,0,0,1.386,6.271a21.224,21.224,0,0,0-.336,3.9,21.224,21.224,0,0,0,.336,3.9,1.993,1.993,0,0,0,1.424,1.41,47.813,47.813,0,0,0,6.291.339,47.813,47.813,0,0,0,6.291-.339,1.993,1.993,0,0,0,1.424-1.41,21.224,21.224,0,0,0,.336-3.9,21.224,21.224,0,0,0-.336-3.9ZM7.454,12.566V7.778l4.208,2.394L7.454,12.566Z" transform="translate(8.642 7.962)" fill="#fff"/>
  </g>
</svg>
